<svg width="1000.0002" height="94.464867" viewBox="0 0 264.58338 24.99383" xmlns="http://www.w3.org/2000/svg">
  <defs>
    <linearGradient id="gradient" x1="0%" x2="100%" gradientUnits="objectBoundingBox" spreadMethod="reflect">
      <stop offset="0" stop-color="#1f005c" />
      <stop offset="0.35" stop-color="#940d60" />
      <stop offset="0.65" stop-color="#da5f5c" />
      <stop offset="1" stop-color="#ffb56b" />
      <animateTransform attributeName="gradientTransform" type="translate" from="0" to="2" dur="2.5s"
        repeatCount="indefinite" />
    </linearGradient>
  </defs>

  <path fill="url(#gradient)"
    d="M59.801826 0 49.589074 20.66005c-.503912 1.04141-1.578269 3.09013-1.847022 3.66124h6.886142c.302347-.73906.806461-1.81311 1.04162-2.3506l.201758-.47078h8.565844l.20176.47078c.26877.60469.77208 1.64513 1.07443 2.3506h6.68602c-.36954-.70547-1.34476-2.61983-1.84866-3.66124L60.474366 0Zm-47.03671.1345C5.374432.1345 0 5.71018 0 12.56335c0 6.8532 5.03849 12.43048 12.765116 12.43048s11.959705-5.30745 11.959705-11.28717c0-.50391-.03359-1.51192-.06727-1.88147H17.09887c-1.175786 0-3.392016-.0344-4.030305-.0344v5.30813c.638289 0 2.821715-.0328 3.997501-.0328h.269022c.571092 0 .940829-.13447 1.041611-.20176l.10006.13451c-.100782.0673-.235806.53761-.672538.97436-.97423.97421-2.150033 1.77977-5.03912 1.77977-3.762526 0-6.315302-2.88955-6.315302-7.18961 0-3.72891 2.552776-6.78608 6.315302-6.78608 1.814075 0 3.628301.63954 5.173623 2.95753l4.435484-4.0992c-2.049242-2.72113-5.376263-4.5011-9.609107-4.5011ZM129.70486.2018v20.08923c0 1.1758-.0344 3.39203-.0344 4.03031h6.51707c0-.63828-.0328-2.85451-.0328-4.03031v-5.60996c0-1.27656-.1674-2.15083-.23457-2.48675l.13451-.0328c.67188.94066.80482 1.10808 1.87983 1.98153l13.10302 10.78359h.60365V4.83741c0-1.1758.0344-3.39367.0344-4.03195h-6.51707c0 .63828.0328 2.85615.0328 4.03195v5.24089c0 1.27658.16741 2.14917.23457 2.48511l-.13286.0344c-.67189-.94066-.80646-1.10971-1.88148-1.98317L130.30851.20179Zm-4.65529.57084c-.63828 0-2.85616.0344-4.03195.0344h-8.70036v23.51425h9.23839c1.17579 0 3.39203.0344 4.03031.0344v-5.57716c-.63828 0-2.85452.0344-4.03031.0344h-3.29216v-3.49392h1.47795c1.1758 0 3.39366.0328 4.03195.0328V9.7763c-.63829 0-2.85615.0328-4.03195.0328h-1.47795V6.31518h2.75413c1.17579 0 3.39367.0344 4.03195.0344zm30.11006 0v5.57715c.63829 0 2.85616-.0344 4.03195-.0344h.73815v13.97568c0 1.17581-.0328 3.39204-.0328 4.03032h6.51706c0-.63828-.0344-2.85451-.0344-4.03032V6.31539h.73979c1.17579 0 3.39367.0344 4.03196.0344V.77264c-.63829 0-2.85617.0328-4.03196.0328h-7.92776c-1.17578 0-3.39366-.0328-4.03195-.0328zm31.42889 0v5.57715c.63829 0 2.85615-.0344 4.03195-.0344h.73815v13.97568c0 1.17581-.0328 3.39204-.0328 4.03032h6.51707c0-.63828-.0344-2.85451-.0344-4.03032V6.31539h.73979c1.17578 0 3.39204.0344 4.03032.0344l.002-5.57715c-.63827 0-2.85618.0328-4.03195.0328h-7.92776c-1.1758 0-3.39365-.0328-4.03195-.0328zm32.22281 0c-.63831 0-2.85615.0344-4.03196.0344h-8.70035v23.51425h9.23839c1.1758 0 3.39203.0344 4.03031.0344v-5.57716c-.63828 0-2.85451.0344-4.03031.0344h-3.29216v-3.49392h1.47794c1.17581 0 3.39203.0328 4.03031.0328V9.7763c-.63828 0-2.8545.0328-4.03031.0328h-1.47794V6.31518h2.75412c1.17581 0 3.39365.0344 4.03196.0344zm29.78198 0v5.57715c.63828 0 2.85618-.0344 4.03195-.0344h.73816v13.97568c0 1.17581-.0328 3.39204-.0328 4.03032h6.51706c0-.63828-.0344-2.85451-.0344-4.03032V6.31539h.73979c1.1758 0 3.39203.0344 4.03031.0344V.77264c-.63828 0-2.85451.0328-4.03031.0328h-7.92776c-1.17577 0-3.39367-.0328-4.03195-.0328zM28.200705.80544v19.48558c0 1.1758-.03284 3.39203-.03284 4.03031h6.517069c0-.63828-.03443-2.85451-.03443-4.03031v-4.70285h1.512391l2.250546 5.74447c.40313 1.00779.772145 1.94728 1.14168 2.98869h6.753269s-.906848-2.25028-1.47794-3.66124l-2.4195-5.84452c2.150016-1.04144 3.493916-3.12457 3.493916-6.21524 0-4.53518-2.990743-7.79489-7.593122-7.79489zm47.307361 0v23.51589h8.6331c7.65944 0 12.19428-5.34149 12.19428-11.75794 0-6.55083-4.6349-11.75795-11.45448-11.75795zm25.133274 0c0 .63828.0328 2.85615.0328 4.03195v15.45363c0 1.1758-.0328 3.39203-.0328 4.03031h6.51706c0-.63828-.0344-2.85451-.0344-4.03031V4.83739c0-1.1758.0344-3.39367.0344-4.03195zm121.7492 0c.40313.5375 2.45218 3.25864 3.15766 4.19927l4.93906 6.75327-5.81172 8.29683c-.94063 1.34376-2.04977 2.85557-3.0576 4.26652h7.62594c.30219-.53749 1.00862-1.64538 1.6469-2.61962l2.25055-3.39386c.67189-1.0414.97358-2.0153 1.00716-2.18329h.13451c0 .16792.30231 1.14189.97436 2.18329l2.1833 3.39386c.63827.97424 1.34454 2.08213 1.64689 2.61962h7.79325c-1.04141-1.41095-2.14897-2.92276-3.1232-4.26652l-5.98068-8.29683 4.67004-6.75327c.6719-.97422 2.51909-3.66177 2.88864-4.19927h-7.55868c-.50391.83984-1.04129 1.74775-1.5452 2.55401l-1.04161 1.64526c-.63828 1.00782-.97437 2.18343-.97437 2.31779h-.1345c-.0337-.13427-.36808-1.34356-1.03997-2.31779l-1.10888-1.64526c-.57111-.83984-1.10934-1.71417-1.57964-2.55401ZM34.65051 5.97907h2.150487c1.478133 0 2.552364 1.17672 2.552364 2.62126 0 1.37737-1.175139 2.48511-2.686875 2.48511H34.65051Zm47.307366.1345h2.01598c3.46019 0 5.91178 2.78806 5.91178 6.44982 0 3.56097-2.55225 6.38419-5.77728 6.38419h-2.15048zm-21.92149 5.54271h.13451c0 .16792.23522 1.10944.90711 2.55401l.80705 1.71251c.30235.67189.4692.80623.53639.83985l-.0673.13451c-.10079-.0673-.5362-.16731-1.17449-.16731h-2.11767c-.604695 0-1.107297.10034-1.174485.16731l-.06727-.13451c.06719-.0337.335681-.30248.57084-.83985l.772595-1.71251c.63829-1.44457.87267-2.38603.87266-2.55401z" />
</svg>