<?xml version="1.0" encoding="UTF-8" standalone="no"?>
<svg
   width="500"
   height="300"
   version="1.1"
   viewBox="0 0 500 299.99999"
   id="svg874"
   sodipodi:docname="Darling_in_the_Franxx_logo.svg"
   inkscape:version="1.1 (c4e8f9e, 2021-05-24)"
   xmlns:inkscape="http://www.inkscape.org/namespaces/inkscape"
   xmlns:sodipodi="http://sodipodi.sourceforge.net/DTD/sodipodi-0.dtd"
   xmlns="http://www.w3.org/2000/svg"
   xmlns:svg="http://www.w3.org/2000/svg"
   xmlns:rdf="http://www.w3.org/1999/02/22-rdf-syntax-ns#"
   xmlns:cc="http://creativecommons.org/ns#"
   xmlns:dc="http://purl.org/dc/elements/1.1/">
  <defs
     id="defs878" />
  <sodipodi:namedview
     id="namedview876"
     pagecolor="#ffffff"
     bordercolor="#111111"
     borderopacity="1"
     inkscape:pageshadow="0"
     inkscape:pageopacity="0"
     inkscape:pagecheckerboard="true"
     showgrid="false"
     inkscape:zoom="0.91587495"
     inkscape:cx="214.54894"
     inkscape:cy="222.73783"
     inkscape:current-layer="svg874"
     width="500px"
     inkscape:showpageshadow="false" />
  <title
     id="title822">Darling in the Franxx logo</title>
  <metadata
     id="metadata824">
    <rdf:RDF>
      <cc:Work
         rdf:about="">
        <dc:format>image/svg+xml</dc:format>
        <dc:type
           rdf:resource="http://purl.org/dc/dcmitype/StillImage" />
        <dc:title>Darling in the Franxx logo</dc:title>
      </cc:Work>
    </rdf:RDF>
  </metadata>
  <rect
     style="fill:#ffffff;fill-opacity:1;stroke-width:2;stroke-opacity:0.5;stop-color:#000000"
     id="rect1594"
     width="500.00003"
     height="300"
     x="0"
     y="0" />
  <g
     id="g1442"
     transform="matrix(1.6269624,0,0,1.6269624,141.01389,24.999999)"
     style="stroke-width:0.614642">
    <path
       d="m 0.10120916,152.66997 c 0.20961,-0.54771 7.66712004,-17.65658 16.56798984,-38.01971 8.90086,-20.363137 16.18805,-37.38364 16.18805,-37.827616 0,-0.443976 -4.61052,-11.35554 -10.2456,-24.252189 -5.63508,-12.896649 -10.2456,-23.603301 -10.2456,-23.786868 0,-0.183567 1.78785,-0.340154 3.97273,-0.340154 h 3.97273 l 1.07237,2.1345 c 0.58998,1.173975 9.18689,20.713188 19.10805,43.41573 l 18.04506,41.247077 -2.18701,4.78982 -2.04357,4.99046 -4.10208,-9.41741 c -2.19512,-5.03742 -4.11105,-9.17408 -4.28181,-9.17835 -0.17234,-0.005 -4.90935,10.52735 -10.53162,23.40266 -5.61801,12.8753 -10.49747,23.51792 -10.84326,23.65026 -0.34579,0.13234 -2.27965,0.16452 -4.30315,0.0709 l -3.67561,-0.17025 12.11969,-27.60762 c 6.66818,-15.18483 12.2691,-28.145518 12.45267,-28.807213 0.31253,-1.127016 -2.99001,-9.916887 -3.71232,-9.882735 -0.16905,0.0085 -6.83894,14.992728 -14.8177,33.298198 L 8.1008892,153.66059 h -4.19216 c -3.75843004,0 -4.15288004,-0.1031 -3.81094004,-0.99596 z M 70.198189,122.91931 c -0.45892,-1.09116 -1.35669,-3.19663 -1.9949,-4.67882 l -1.19703,-2.72021 2.09181,-4.82824 c 1.13043,-2.67069 2.19469,-4.92216 2.26342,-4.84105 0.0688,0.0822 1.04505,2.19171 2.0995,4.70444 l 1.90397,4.53795 -2.1964,4.98192 -2.20579,5.13134 z m -8.45262,-19.34284 c -0.46404,-1.09585 -7.92753,-18.173136 -16.5808,-37.951413 -8.65753,-19.778277 -15.73553,-36.248079 -15.73553,-36.598137 0,-0.424381 1.35028,-0.580157 4.0611,-0.468309 l 4.0611,0.167216 3.99706,9.250923 c 2.19854,5.088648 4.14905,9.246654 4.33304,9.242385 0.1857,-0.0044 2.12425,-4.134953 4.30742,-9.17835 l 3.99835,-9.60525 2.14688,5.178297 2.18786,4.789818 -4.23613,9.579636 -4.22332,9.626595 2.02222,4.495257 c 1.1125,2.473459 2.21263,4.298883 2.44529,4.058112 0.36056,-0.374135 6.39069,-13.720566 8.14525,-18.074946 0.54173,-1.343454 -0.004,0.227879 1.85701,4.2579 1.08433,2.34795 2.28861,4.811163 2.32319,5.280753 -0.0955,0.449526 -2.04741,4.858122 -4.27327,9.94677 l -4.04658,9.250923 4.04658,9.250923 c 2.22543,5.088648 4.49953,9.09297 4.46538,9.56256 -0.0346,0.46959 -1.42329,3.31616 -2.49993,5.664967 l -1.95691,4.269 z m 4.53368,-54.088233 c -2.69075,-6.497418 -3.43142,-2.359476 0.72317,-11.372616 l 4.1341,-9.711975 2.0393,5.186835 2.24848,4.926426 -4.21564,9.327765 c -1.12189,2.48285 0.0561,-0.07313 -0.0128,0.0091 -0.0688,0.08222 -3.80923,4.307421 -4.91789,1.632466 z"
       style="fill:#02a6df;stroke-width:0.262392"
       id="path864" />
    <path
       d="m 60.721009,120.43902 c -1.07237,-2.52511 -2.28093,-4.67882 -2.24122,-5.15695 0.0401,-0.48112 1.29905,-3.07112 2.35349,-5.37894 l 1.72553,-4.34158 2.26898,5.05023 2.14816,4.90508 -2.18786,4.75994 -2.07474,4.81543 z m 33.95136,0.63267 c -1.02328,-2.26983 -2.87389,-6.49315 -4.11233,-9.38327 -1.23844,-2.89096 -2.40089,-5.2594 -2.58275,-5.26367 -0.18194,-0.005 -2.1012,4.09653 -4.26515,9.11431 -4.38854,10.17303 -3.85064,12.50817 -6.16871,5.87841 l -2.21049,-6.32665 4.0944,-9.19116 c 2.22244,-5.07157 4.04104,-9.472914 4.04104,-9.780282 0,-0.826905 -3.60475,-9.054549 -3.96164,-9.041742 -0.16905,0.006 -2.12553,4.241251 -4.34584,9.413145 l -3.80624,9.498529 -2.32532,-5.09719 -2.1392,-4.981923 4.04488,-9.110046 c 2.19853,-4.998999 3.99706,-9.489987 3.99706,-9.976653 0,-0.486666 -1.79853,-4.977654 -3.99706,-9.976653 l -4.11702,-9.174081 2.20195,-4.896543 2.14517,-4.930695 16.6491,38.173398 c 9.19116,21.020556 16.713131,38.438076 16.713131,38.702756 0,0.26468 -1.79938,0.48112 -3.99877,0.48112 h -3.998771 z m -0.32184,-39.21931 -18.95863,-43.33035 2.44571,-5.220987 c 2.54133,-7.240224 0.81111,-6.582798 5.13561,3.068557 2.16395,5.016075 4.82397,10.864605 5.00326,10.860336 0.18186,-0.0054 4.93924,-10.62981 10.57432,-23.60757 L 108.7964,0.02760335 112.92324,0.0123801 c 2.26983,-0.0083715 4.12684,0.1583799 4.12684,0.3705492 0,0.2121693 -5.50701,12.9862977 -12.23922,28.3931187 -6.732221,15.406821 -12.222151,28.482768 -12.200801,29.07189 0.96137,3.361411 2.26257,5.775957 3.80111,9.033204 l 1.67772,-3.699942 c 0.92253,-2.035033 7.526251,-17.084538 14.672551,-33.439077 L 125.75628,0 h 4.24253 c 3.1723,0 4.16783,0.17946876 3.94669,0.7116423 -0.16269,0.3913392 -7.73116,17.6821977 -16.81559,38.4209997 l -16.52103,37.708077 10.4932,23.991781 c 5.77169,13.19548 10.49321,24.08143 10.49321,24.19242 0,0.1107 -1.86684,0.20129 -4.14819,0.20129 h -4.14862 z M 62.631859,48.093128 c -1.04676,-2.381675 -4.13282,-9.314958 -4.13282,-9.699168 0,-0.388266 1.17739,-2.734722 2.24037,-5.238063 l 1.95648,-4.747128 2.09693,4.960578 2.21519,4.78128 -2.09437,4.65321 c -1.0997,2.569938 -2.19896,5.20818 -2.28221,5.289291 -0.083,0.08303 1.99192,-1.838658 0.08,-0.0739 z"
       style="fill:#fd401b;stroke-width:0.262392"
       id="path866" />
    <path
       style="fill:#050505;stroke-width:0.262392"
       d="m 73.203569,33.411442 -1.95008,-5.041689 3.97017,0.0523 c 2.23012,0.02939 4.47818,-0.154751 4.59771,-0.03594 0.22182,0.221817 -3.73794,9.554022 -4.28181,10.096185 -0.1661,0.166106 -1.22008,-2.477301 -2.3377,-5.071572 z"
       id="path1151" />
    <path
       style="fill:#050505;stroke-width:0.262392"
       d="m 56.614229,33.930979 c -1.11378,-2.443575 -2.30995,-5.528355 -2.29117,-5.515548 0,0 3.9992,-0.01127 4.28608,-0.01242 4.2357,-0.01722 4.23143,-0.01563 4.23143,-0.01563 0,0.260835 -1.16202,3.00196 -2.23995,5.481396 l -1.95947,4.508064 z"
       id="path1149" />
    <path
       style="fill:#050505;stroke-width:0.262392"
       d="m 64.823519,52.707191 -2.02436,-4.648941 1.99234,-4.6959 c 1.10354,-2.588295 2.14645,-5.285022 2.33429,-5.285022 0.18784,0 1.20258,2.634827 2.23952,5.144145 l 1.9552,4.593444 -1.90312,4.371456 c -1.00834,2.419669 -2.20195,5.229525 -2.40857,5.442975 -0.20641,0.213578 -1.07195,-2.369295 -2.1853,-4.926426 z"
       id="path1121" />
    <path
       style="fill:#050505;stroke-width:0.262392"
       d="m 64.738139,110.21507 -2.07431,-4.67455 2.19811,-4.84959 2.25403,-5.174027 1.47451,3.355007 c 3.30976,7.47502 2.94049,6.99263 2.94049,6.99263 -0.67962,1.11164 -4.3245,9.73758 -4.45683,9.63086 -0.1875,0 -1.11251,-2.52511 -2.33429,-5.28075 z"
       id="path1109" />
    <path
       style="fill:#050505;stroke-width:0.262392"
       d="m 71.739299,123.32444 c 2.56524,-6.09613 3.40794,-8.49531 3.67689,-8.22637 0.29627,0.29627 4.1452,9.65221 4.1452,10.02362 0,0.10429 -1.97185,0.0558 -4.3245,0.0558 h -4.27754 z"
       id="path1099" />
    <path
       style="fill:#050505;stroke-width:0.262392"
       d="m 54.471189,124.63673 c 0,-0.29572 0.91101,-2.53707 2.02479,-4.98193 l 2.02479,-4.44402 4.22247,9.85285 c -0.0686,0.006 0.17806,0.006 -0.0686,0.006 l -0.36799,1e-4 c -0.83928,2.1e-4 -8.02572,-0.12526 -8.02572,-0.12526 z"
       id="path1097" />
  </g>
</svg>
