<svg width="1000" height="208.78493" viewBox="0 0 264.58333 55.241013" xmlns:xlink="http://www.w3.org/1999/xlink" xmlns="http://www.w3.org/2000/svg">
  <defs>
    <linearGradient id="a" gradientUnits="objectBoundingBox" x1="0%" y1="0%" x2="0%" y2="300%" gradientTransform="scale(3)">
      <stop offset="0"                  stop-color="#109aed" />
      <stop offset="0.0555555555555555" stop-color="#5496f3" />
      <stop offset="0.1111111111111111" stop-color="#b187ee" />
      <stop offset="0.1666666666666666" stop-color="#ff6bbe" />
      <stop offset="0.2222222222222222" stop-color="#ff6c71" />
      <stop offset="0.2777777777777777" stop-color="#ff8a2f" />
      <stop offset="0.3333333333333333" stop-color="#ff9900" />

      <stop offset="0.3888888888888888" stop-color="#ff8a2f" />
      <stop offset="0.4444444444444444" stop-color="#ff6c71" />
      <stop offset="0.5"                stop-color="#ff6bbe" />
      <stop offset="0.5555555555555555" stop-color="#b187ee" />
      <stop offset="0.6111111111111111" stop-color="#5496f3" />
      <stop offset="0.6666666666666666" stop-color="#109aed" />

      <stop offset="0.7222222222222222" stop-color="#5496f3" />
      <stop offset="0.7777777777777777" stop-color="#b187ee" />
      <stop offset="0.8333333333333333" stop-color="#ff6bbe" />
      <stop offset="0.8888888888888888" stop-color="#ff6c71" />
      <stop offset="0.9444444444444444" stop-color="#ff8a2f" />
      <stop offset="1"                  stop-color="#ff9900" />
      <animateTransform attributeName="gradientTransform" type="translate" dur="4s" from="0 0" to="0 -2" repeatCount="indefinite"/>
    </linearGradient>
  </defs>
  <path style="font-size:34.791px;line-height:1.25;font-family:'Inter V';-inkscape-font-specification:'Inter V, @wght=800';font-variation-settings:'wght' 800;word-spacing:0;fill:url(#a);stroke-width:1" d="M831.2207 0c-3.2064 0-5.962 1.0746793-8.26562 3.2226562C820.65146 5.3395032 819.5 7.8923698 819.5 10.880859c0 3.01962 1.15146 5.602024 3.45508 7.75 2.30362 2.116847 5.05922 3.175782 8.26562 3.175782 3.23755 0 5.99315-1.058935 8.26563-3.175782 2.30365-2.147976 3.45508-4.73038 3.45508-7.75 0-2.9884892-1.15143-5.5413558-3.45508-7.6582028C837.21385 1.0746793 834.45825 0 831.2207 0ZM465.87695 4.9492188c-6.38165 0-12.34164 1.0904242-17.88281 3.2695312-5.51002 2.179107-10.36775 5.385447-14.57031 9.619141-4.17144 4.233693-7.42305 9.400453-9.75781 15.501953-2.33477 6.070368-3.50391 13.028259-3.50391 20.873047 0 10.08615 1.93088 18.803687 5.79101 26.15039 3.86014 7.315576 9.24536 12.948822 16.15626 16.902344 6.91089 3.953525 14.92771 5.929685 24.04882 5.929685 8.21836 0 15.48725-1.63368 21.80664-4.902341 6.35054-3.268662 11.3303-7.953187 14.94141-14.054688 3.6422-6.101498 5.46289-13.433362 5.46289-21.99414V49.589844h-41.23047v16.857422h18.95117c-.0724 3.239951-.83209 6.072914-2.28125 8.498046-1.52536 2.552671-3.76723 4.530787-6.72461 5.931641-2.92621 1.369724-6.50653 2.052735-10.74023 2.052735-4.79403 0-8.87231-1.135707-12.23437-3.408204-3.36205-2.272498-5.92872-5.571354-7.70313-9.898437-1.77441-4.327085-2.66211-9.556825-2.66211-15.689453 0-6.101501.91723-11.285958 2.75391-15.550782 1.83667-4.295953 4.43678-7.56332 7.79883-9.804687 3.39318-2.241367 7.40848-3.363281 12.04687-3.363281 2.30362 0 4.42148.281455 6.35156.841797 1.93006.529211 3.64247 1.322436 5.13672 2.380859 1.49425 1.058423 2.75395 2.349625 3.78125 3.875 1.02728 1.494245 1.80673 3.222397 2.33594 5.183594h23.39453c-.56035-4.762905-1.99325-9.136441-4.29687-13.121094-2.30363-3.984653-5.30723-7.425213-9.01172-10.320312-3.67335-2.8951-7.90715-5.1350216-12.70118-6.7226568-4.76291-1.5876351-9.91586-2.3828125-15.45703-2.3828124zM0 6.2578125V101.88867h23.113281V63.458984h38.009766V44.640625H23.113281V25.029297h42.166016V6.2578125Zm736.3125 0V101.88867h22.83398V60.984375c.0311-2.739449.54486-5.07384 1.54102-7.003906 1.0273-1.930066 2.44444-3.410207 4.25-4.4375 1.83667-1.058424 3.95261-1.587891 6.34961-1.587891 3.67337 0 6.52149 1.121916 8.54492 3.363281 2.02333 2.241369 3.01927 5.353238 2.98828 9.337891v41.23242h22.83399V56.173828c.0311-5.416637-.99631-10.148401-3.08203-14.195312-2.05458-4.046914-4.94994-7.174529-8.68555-9.384766-3.73561-2.241367-8.1249-3.363281-13.16797-3.363281-5.35438 0-9.8834 1.24592-13.58789 3.736328-3.67335 2.490408-6.31873 5.946712-7.9375 10.367187h-.79492V6.2578125ZM561.76562 29.183594c-3.92239 0-7.361 1.169148-10.31835 3.503906-2.95736 2.303627-5.09098 5.82096-6.39844 10.552734h-.7461V30.166016h-22.18164v71.722654h22.83399V62.945312c0-2.863967.6082-5.353855 1.82226-7.470703 1.24521-2.147976 2.94187-3.815102 5.08985-4.998047 2.1791-1.214074 4.62174-1.820312 7.33008-1.820312 1.36972 0 2.92665.10827 4.66992.326172 1.77444.21791 3.20734.515111 4.29687.888672V30.025391c-.96504-.280171-2.00822-.482902-3.1289-.607422-1.12068-.155651-2.21112-.234375-3.26954-.234375zm-454.92773.04687c-6.4128 0-11.906295.995954-16.482421 2.988281-4.544995 1.961196-8.125308 4.669559-10.740235 8.125-2.583798 3.424312-4.187945 7.315615-4.810546 11.673828l21.060546.748047c.498082-2.303627 1.665277-4.108551 3.501954-5.416016 1.836672-1.307464 4.265532-1.960937 7.285152-1.960937 2.80171 0 5.02784.653473 6.67774 1.960937 1.64989 1.307465 2.47461 3.159624 2.47461 5.556641v.232422c0 1.463115-.5767 2.598822-1.72852 3.408203-1.12068.778253-2.92561 1.386443-5.41601 1.822266-2.49041.404691-5.77548.794407-9.853519 1.167968-3.642223.311302-7.067038.91754-10.273438 1.820313-3.2064.871642-6.038769 2.162844-8.498047 3.875-2.459278 1.712154-4.388208 3.938285-5.789062 6.677734-1.400857 2.73945-2.101563 6.101285-2.101563 10.085938 0 4.731774 1.011698 8.670312 3.035157 11.814453 2.054586 3.11301 4.839722 5.447401 8.357421 7.003898 3.548833 1.52538 7.611377 2.28907 12.1875 2.28907 3.330923 0 6.320741-.42121 8.966801-1.26172 2.67718-.84051 4.99583-2.100223 6.95703-3.781248 1.99233-1.681026 3.62601-3.735915 4.90234-6.164063h.56055v9.992181h21.48047V53.138672c0-3.797871-.79518-7.175451-2.38282-10.132813-1.5565-2.957359-3.76689-5.447247-6.63086-7.470703-2.86396-2.054586-6.2258-3.611498-10.08593-4.669922-3.86013-1.089553-8.07817-1.634765-12.6543-1.634765zm90.0293 0c-5.29212 0-9.85264 1.261665-13.68164 3.783203-3.829 2.490408-6.53737 5.930968-8.125 10.320312h-.79493V30.166016h-21.71289v71.722654h22.83399V60.984375c.0311-2.739449.52911-5.07384 1.49414-7.003906.99616-1.930066 2.39758-3.410207 4.20312-4.4375 1.83668-1.058424 3.95259-1.587891 6.34961-1.587891 3.6111 0 6.42967 1.121916 8.45313 3.363281 2.05458 2.241369 3.06627 5.353238 3.03516 9.337891v41.23242h22.83398V56.173828c.0311-5.385507-.99631-10.085779-3.08203-14.101562-2.05459-4.046913-4.94994-7.190274-8.68555-9.431641-3.70448-2.272497-8.07802-3.410156-13.12109-3.410156zm72.58789 0c-7.50236 0-13.96227 1.556912-19.37891 4.669922-5.38551 3.113009-9.54252 7.455055-12.46875 13.027343-2.8951 5.541158-4.34179 11.985328-4.3418 19.332032.00001 7.315575 1.4467 13.759745 4.3418 19.332031 2.8951 5.541158 7.03637 9.869411 12.42188 12.982422 5.41663 3.113006 11.90804 4.667966 19.47265 4.667966 6.72411 0 12.52859-1.21248 17.41602-3.640623 4.91855-2.459278 8.73309-5.899837 11.44141-10.320312 2.73945-4.420472 4.21764-9.587232 4.43554-15.501953h-21.33984c-.28017 2.521539-.94939 4.668944-2.00781 6.443359-1.05843 1.743287-2.41261 3.065977-4.0625 3.96875-1.61877.902773-3.48667 1.353516-5.60352 1.353516-2.64606 0-4.96471-.730244-6.95703-2.19336-1.99233-1.494243-3.54924-3.688883-4.66992-6.583984-1.08956-2.926228-1.63477-6.506539-1.63477-10.740234 0-4.233693.54521-7.782515 1.63477-10.646485 1.12068-2.895098 2.67759-5.073993 4.66992-6.537109 1.99232-1.494244 4.31097-2.242188 6.95703-2.242188 3.26866 0 5.91404 1.04319 7.9375 3.128907 2.05459 2.085717 3.30051 4.965321 3.73633 8.638672h21.33984c-.15565-5.883588-1.63384-11.005066-4.43554-15.363282-2.77058-4.389343-6.63235-7.782669-11.58204-10.179687-4.91855-2.397018-10.69155-3.595703-17.32226-3.595703zm336.9043 0c-6.4128 0-11.9063.995954-16.48243 2.988281-4.54498 1.961196-8.1253 4.669559-10.74023 8.125-2.58381 3.424312-4.18796 7.315615-4.81055 11.673828l21.06055.748047c.49809-2.303627 1.66528-4.108551 3.50195-5.416016 1.83668-1.307464 4.26554-1.960937 7.28516-1.960937 2.80171 0 5.02589.653473 6.67578 1.960937 1.64991 1.307465 2.47656 3.159624 2.47656 5.556641v.232422c0 1.463115-.57669 2.598822-1.72851 3.408203-1.12068.778253-2.92561 1.386443-5.41602 1.822266-2.49041.404691-5.77546.794407-9.85352 1.167968-3.6422.311302-7.06703.91754-10.27343 1.820313-3.2064.871642-6.03876 2.162844-8.49805 3.875-2.45926 1.712154-4.38819 3.938285-5.78906 6.677734-1.40085 2.73945-2.10156 6.101285-2.10156 10.085938 0 4.731774 1.01169 8.670312 3.03515 11.814453 2.05458 3.11301 4.83972 5.447401 8.35742 7.003898 3.54883 1.52538 7.61138 2.28907 12.1875 2.28907 3.33093 0 6.3188-.42121 8.96485-1.26172 2.67719-.84051 4.99779-2.100223 6.95898-3.781248 1.99234-1.681026 3.62602-3.735915 4.90235-6.164063h.56054v9.992181h21.48047V53.138672c0-3.797871-.79518-7.175451-2.38281-10.132813-1.55651-2.957359-3.76689-5.447247-6.63086-7.470703-2.86398-2.054586-6.22581-3.611498-10.08594-4.669922-3.86013-1.089553-8.07817-1.634765-12.65429-1.634765zm89.32812 0c-3.76675 0-7.00458.653473-9.71289 1.960937-2.67719 1.276334-4.88757 2.927716-6.63086 4.951172-1.71215 2.023456-3.03483 4.123628-3.96875 6.302734h-.69922V30.166016h-22.60156v98.619144h22.83398V90.261719h.4668c.96504 2.210237 2.33496 4.280871 4.10938 6.210937 1.80555 1.930066 4.03168 3.486978 6.67773 4.669924 2.64607 1.18294 5.77368 1.77344 9.38477 1.77344 5.29211 0 10.1026-1.36993 14.42968-4.109379 4.35823-2.73945 7.81257-6.849229 10.36524-12.328125 2.58378-5.478899 3.87695-12.279341 3.87695-20.404297 0-8.436256-1.33843-15.378404-4.01563-20.826172-2.67719-5.447768-6.19453-9.478822-10.55273-12.09375-4.32708-2.614929-8.98208-3.923828-13.96289-3.923828zm194.76562 0c-7.50233 0-13.96226 1.556912-19.3789 4.669922-5.3855 3.113009-9.54056 7.455055-12.4668 13.027343-2.89509 5.541158-4.34375 11.985328-4.34375 19.332032 0 7.315575 1.44866 13.759745 4.34375 19.332031 2.89509 5.541158 7.03442 9.869411 12.41992 12.982422 5.41665 3.113006 11.90804 4.667966 19.47266 4.667966 6.72411 0 12.53056-1.21248 17.41797-3.640623 4.91858-2.459278 8.73114-5.899837 11.43945-10.320312 2.7394-4.420472 4.2176-9.587232 4.43555-15.501953h-21.33985c-.28018 2.521539-.94939 4.668944-2.00781 6.443359-1.05842 1.743287-2.41261 3.065977-4.0625 3.96875-1.61877.902773-3.48668 1.353516-5.60351 1.353516-2.64608 0-4.96472-.730244-6.95703-2.19336-1.99234-1.494243-3.54925-3.688883-4.66993-6.583984-1.08953-2.926228-1.63281-6.506539-1.63281-10.740234 0-4.233693.54328-7.782515 1.63281-10.646485 1.12068-2.895098 2.67759-5.073993 4.66993-6.537109 1.99231-1.494244 4.31095-2.242188 6.95703-2.242188 3.26866 0 5.91599 1.04319 7.93945 3.128907 2.05458 2.085717 3.29855 4.965321 3.73437 8.638672h21.33985c-.15564-5.883588-1.63383-11.005066-4.43555-15.363282-2.77057-4.389343-6.63038-7.782669-11.58008-10.179687-4.91855-2.397018-10.69349-3.595703-17.32422-3.595703zm75.50586 0c-6.47506 0-12.09451.903438-16.85742 2.708984-4.76291 1.805546-8.43572 4.421392-11.01953 7.845703-2.58366 3.393182-3.85912 7.485261-3.82812 12.279297-.0311 5.478896 1.7108 9.994136 5.22851 13.542969 3.51768 3.517699 8.8734 5.928863 16.06446 7.236328l12.51367 2.382812c2.98849.560343 5.18314 1.337822 6.58398 2.333985 1.40074.965032 2.11719 2.256233 2.14844 3.875-.0311 1.805546-.96606 3.254198-2.80274 4.34375-1.83667 1.089555-4.21832 1.634766-7.14453 1.634765-3.23754 0-5.89865-.684964-7.98437-2.054687-2.08572-1.369726-3.37694-3.363587-3.875-5.978516l-22.55469.560547c.84052 7.097663 4.20235 12.764354 10.08594 16.998047 5.91471 4.202572 13.99451 6.302732 24.23633 6.302732 6.4128 0 12.10903-.99596 17.08984-2.98828 4.98081-2.023457 8.9036-4.855823 11.76758-8.498046 2.89497-3.642219 4.35743-7.92324 4.38867-12.841797-.0311-5.229858-1.80651-9.432152-5.32422-12.607421-3.48656-3.17527-8.80881-5.446681-15.96875-6.816407L964.88477 56.875c-3.01965-.622602-5.1198-1.447316-6.30274-2.474609-1.15167-1.027294-1.71263-2.241722-1.68164-3.642579-.0311-1.805545.87231-3.238453 2.70899-4.296874 1.86779-1.058424 4.12345-1.585938 6.76953-1.585938 2.02345 0 3.79885.34053 5.32421 1.025391 1.55652.653732 2.81622 1.572915 3.78126 2.755859.96498 1.151814 1.55743 2.474504 1.77539 3.96875l20.96484-.560547c-.59147-7.097663-3.68761-12.669883-9.29102-16.716797-5.60342-4.078043-13.26203-6.117187-22.97461-6.117187Zm-657.09375.935547 25.4961 74.337899-.88867 2.14843c-.71599 1.77442-1.74344 3.00264-3.08204 3.6875-1.30746.716-2.87816 1.0132-4.71484.88868-1.80554-.12453-3.82895-.56148-6.07031-1.3086l-5.04297 16.57813c1.74328.68486 3.82771 1.22812 6.25586 1.6328 2.42815.43582 5.01251.6543 7.75195.6543 5.4789 0 10.08666-.8562 13.82227-2.56835 3.76674-1.71216 6.83333-4.07804 9.19922-7.09766 2.39702-2.98849 4.24917-6.44285 5.55664-10.36523l27.03515-78.587894h-24.04687L346.73438 81.34375h-.7461l-13.21484-51.177734Zm510.91407 0v71.722659h22.83398V30.166016ZM687.65625 47.068359c2.83283 0 5.21448.779433 7.14453 2.335938 1.9612 1.556505 3.43937 3.751145 4.43555 6.583984 1.02727 2.832839 1.54101 6.178931 1.54101 10.039063 0 3.860135-.51374 7.22197-1.54101 10.085937-.99618 2.86397-2.47435 5.090099-4.43555 6.677735-1.9612 1.556505-4.34284 2.333984-7.14453 2.333984-2.7706 0-5.15222-.777479-7.14453-2.333984-1.9612-1.587636-3.47088-3.813765-4.5293-6.677735-1.0273-2.863967-1.54101-6.225802-1.54101-10.085937 0-3.922391.51371-7.299974 1.54101-10.132813 1.05842-2.832839 2.5681-5.011735 4.5293-6.537109 1.9612-1.525377 4.34282-2.289063 7.14453-2.289063zM115.94336 69.576172v6.816406c0 2.334758-.59049 4.389648-1.77344 6.164063-1.18294 1.743287-2.77134 3.113212-4.76367 4.109375-1.9612.996162-4.17158 1.49414-6.63086 1.49414-2.61493 0-4.77808-.621984-6.490234-1.867187-1.681025-1.245206-2.521484-3.05013-2.521484-5.416016 0-1.556505.389716-2.896893 1.167969-4.017578.80938-1.151814 1.960831-2.08479 3.455078-2.800781 1.525374-.715991 3.361791-1.245458 5.509761-1.587891 1.05843-.155646 2.1646-.326888 3.31641-.513672 1.15181-.186776 2.27177-.405251 3.36133-.654297 1.08955-.24904 2.08551-.512797 2.98828-.792968.9339-.280172 1.72713-.591164 2.38086-.933594zm499.52148 0v6.816406c0 2.334758-.59049 4.389648-1.77343 6.164063-1.18295 1.743287-2.77134 3.113212-4.76368 4.109375-1.96119.996162-4.17159 1.49414-6.63085 1.49414-2.61493 0-4.77809-.621984-6.49024-1.867187-1.68103-1.245206-2.52148-3.05013-2.52148-5.416016 0-1.556505.38971-2.896893 1.16796-4.017578.80938-1.151814 1.96083-2.08479 3.45508-2.800781 1.52537-.715991 3.36179-1.245458 5.50977-1.587891 1.05842-.155646 2.16458-.326888 3.31641-.513672 1.15182-.186776 2.27179-.405251 3.36132-.654297 1.08957-.24904 2.08551-.512797 2.98828-.792968.9339-.280172 1.72713-.591164 2.38086-.933594z" transform="scale(.26458)"/>
  <path style="font-size:21.82px;line-height:1.25;font-family:'Inter V';-inkscape-font-specification:'Inter V, @wght=500';font-variation-settings:'wght' 500;word-spacing:0;fill:#404040;stroke-width:.999999" d="M20.324219 145c-2.381929 0-4.588644.4691-6.619141 1.40625-2.030496.91763-3.660613 2.31319-4.8906249 4.1875-1.2300124 1.85478-1.84375 4.18854-1.84375 7v5.21289H0v7.02734h6.9707031v37.95508h8.7558589v-37.95508h9.69336v-7.02734h-9.69336v-4.04297c.000001-1.99145.449553-3.51406 1.347657-4.56836.917628-1.05429 2.440242-1.58008 4.568359-1.58008.917628 0 1.697505.08795 2.341797.26368.644292.15619 1.172027.29106 1.582031.4082l2.050782-7.08594c-.605245-.23429-1.533667-.48838-2.783204-.76172-1.249536-.29286-2.752605-.43945-4.509765-.43945zm594.798831 2.81055v59.97851h8.75586v-26.70898c0-2.38193.45931-4.41274 1.37695-6.0918.93715-1.69859 2.21545-2.98665 3.83594-3.86523 1.64001-.87858 3.49488-1.31836 5.56445-1.31836 3.02622 0 5.38932.91865 7.08789 2.7539 1.6986 1.81574 2.54883 4.37232 2.54883 7.67188v27.55859h8.75586v-28.61133c0-3.7486-.645-6.87397-1.9336-9.37304-1.26906-2.5186-3.06532-4.41258-5.38867-5.68164-2.30382-1.26906-4.99723-1.90235-8.08203-1.90235-3.4948 0-6.32698.71147-8.49414 2.13672s-3.77772 3.34856-4.83203 5.76953h-.55664v-22.3164h-8.63867zm99.5 4.21875v10.77734h-6.58985v7.02734h6.58985v26.5625c0 2.71384.61374 4.96942 1.84375 6.76563 1.23001 1.79621 2.8406 3.12336 4.83203 3.98242 1.99146.85907 4.13953 1.26953 6.44336 1.23047 1.40573-.01953 2.57848-.13681 3.51562-.35156.93717-.19523 1.6584-.39069 2.16602-.58594l-1.58203-7.23242c-.29287.05858-.70138.13481-1.22852.23242-.52717.09761-1.14284.14648-1.8457.14648-.95668 0-1.84406-.14464-2.66406-.4375-.80048-.31238-1.45528-.88898-1.9629-1.72851-.50764-.85906-.76171-2.13735-.76171-3.83594v-24.74805h9.22461v-7.02734h-9.22461V152.0293h-8.75586zm-611.97657 10.10351c-2.63573 0-4.996865.7017-7.085933 2.10742-2.069546 1.38621-3.513976 3.28997-4.333985 5.71094h-.46875v-7.14453h-8.464843v44.98242h8.757812v-27.4707c0-1.9524.467146-3.69002 1.404297-5.21289.937152-1.5424 2.207624-2.74251 3.808594-3.60156 1.620492-.87859 3.465613-1.31836 5.535158-1.31836.8981 0 1.79525.06841 2.69336.20507.8981.11717 1.52357.22466 1.875.32227v-8.375c-.42953-.05856-1.02568-.10743-1.78711-.14648-.74191-.03906-1.38692-.0586-1.9336-.0586zm174.44336 0c-2.63574 0-4.99882.7017-7.08789 2.10742-2.06954 1.38621-3.51397 3.28997-4.33398 5.71094h-.46875v-7.14453h-8.46289v44.98242h8.75586v-27.4707c0-1.9524.4691-3.69002 1.40625-5.21289.93715-1.5424 2.20567-2.74251 3.80664-3.60156 1.62049-.87859 3.46561-1.31836 5.53515-1.31836.89811 0 1.79721.06841 2.69532.20507.8981.11717 1.52161.22466 1.87304.32227v-8.375c-.42952-.05856-1.02567-.10743-1.78711-.14648-.74191-.03906-1.38497-.0586-1.93164-.0586zm719.19141 0c-2.63574 0-4.99882.7017-7.08789 2.10742-2.06954 1.38621-3.51398 3.28997-4.33398 5.71094h-.46876v-7.14453h-8.46289v44.98242h8.75586v-27.4707c0-1.9524.46911-3.69002 1.40625-5.21289.93715-1.5424 2.20566-2.74251 3.80664-3.60156 1.62049-.87859 3.46562-1.31836 5.53516-1.31836.89812 0 1.79527.06841 2.69336.20507.89812.11717 1.52358.22466 1.875.32227v-8.375c-.42953-.05856-1.02569-.10743-1.78711-.14648-.74192-.03906-1.38497-.0586-1.93164-.0586zm-944.650391.08789c-4.217186 0-7.89765.96557-11.041015 2.89844-3.143365 1.93288-5.582676 4.64778-7.320313 8.14258-1.737636 3.4948-2.607422 7.574-2.607422 12.24023 0 4.64672.869786 8.70832 2.607422 12.1836 1.737637 3.47527 4.176948 6.17845 7.320313 8.11133 3.143365 1.93287 6.823829 2.90039 11.041015 2.90039 4.217185 0 7.897651-.96752 11.041016-2.90039 3.143365-1.93288 5.58463-4.63606 7.322266-8.11133 1.737637-3.47528 2.605468-7.53688 2.605468-12.1836 0-4.66623-.867831-8.74543-2.605468-12.24023-1.737636-3.4948-4.178901-6.2097-7.322266-8.14258-3.143365-1.93287-6.823831-2.89844-11.041016-2.89844zm106.527341 0c-3.37765 0-6.17856.72124-8.40429 2.16602-2.20622 1.44478-3.82656 3.3583-4.86133 5.74023h-.55664v-7.32031h-8.4043v44.98242h8.75586v-26.70898c0-2.38193.44955-4.41274 1.34766-6.0918.91762-1.69859 2.15682-2.98665 3.71875-3.86523 1.58144-.87858 3.38747-1.31836 5.41797-1.31836 2.96764 0 5.3014.92842 7 2.7832 1.69858 1.83526 2.54687 4.38207 2.54687 7.64258v27.55859h8.75781v-28.61133c0-3.70956-.63523-6.82515-1.90429-9.34375-1.26907-2.51859-3.05555-4.41258-5.35938-5.68164-2.30383-1.28858-4.98942-1.93164-8.05469-1.93164zm46.00977 0c-4.21719 0-7.89765.96557-11.04102 2.89844-3.14336 1.93288-5.58463 4.64778-7.32226 8.14258-1.73764 3.4948-2.60547 7.574-2.60547 12.24023 0 4.64672.86783 8.70832 2.60547 12.1836 1.73763 3.47527 4.1789 6.17845 7.32226 8.11133 3.14337 1.93287 6.82383 2.90039 11.04102 2.90039 4.21719 0 7.89765-.96752 11.04101-2.90039 3.14337-1.93288 5.58268-4.63606 7.32032-8.11133 1.73763-3.47528 2.60742-7.53688 2.60742-12.1836 0-4.66623-.86979-8.74543-2.60742-12.24023-1.73764-3.4948-4.17695-6.2097-7.32032-8.14258-3.14336-1.93287-6.82382-2.89844-11.04101-2.89844zm101.46094 0c-4.17814 0-7.82929.98511-10.95313 2.95703-3.10432 1.97193-5.52603 4.71615-7.26367 8.23047-1.71811 3.51432-2.57617 7.57398-2.57617 12.18164 0 4.66624.85806 8.73762 2.57617 12.21289 1.73764 3.45575 4.19845 6.13939 7.38086 8.05274 3.20194 1.89383 7.01922 2.8418 11.45117 2.8418 3.28003 0 6.19822-.49842 8.75586-1.49415 2.57717-1.01524 4.71547-2.43036 6.41406-4.24609 1.71812-1.83526 2.90845-3.97356 3.57227-6.41406l-8.28711-1.49414c-.52715 1.40573-1.28943 2.58824-2.28516 3.54492-.99572.95668-2.17629 1.67791-3.54297 2.16602-1.36668.46857-2.87952.70312-4.53906.70312-2.55764 0-4.79368-.54533-6.70703-1.63867-1.91335-1.11287-3.40665-2.72539-4.48047-4.83399-.98158-1.96315-1.50652-4.31499-1.57422-7.05664h31.97266v-3.10547c0-4.08051-.54728-7.54597-1.64063-10.39648-1.09334-2.87003-2.58664-5.20184-4.48046-6.99805-1.89383-1.79621-4.03019-3.11554-6.41211-3.95507-2.38193-.83954-4.84274-1.25782-7.38086-1.25782zm47.54492 0c-2.71384 0-5.29974.39092-7.75977 1.17188-2.46002.76143-4.63742 1.99086-6.53125 3.68945-1.8743 1.67906-3.29919 3.88578-4.27539 6.61914l8.22852 1.87305c.64429-1.58145 1.80726-3.0161 3.48633-4.30469 1.69858-1.30811 4.02062-1.96289 6.96875-1.96289 2.83098 0 4.95951.70365 6.38476 2.10938 1.44478 1.40572 2.16797 3.38766 2.16797 5.94531v.20508c0 1.05429-.38114 1.81462-1.14258 2.2832-.76143.46859-1.98109.81064-3.66015 1.02539-1.67907.19524-3.86624.44933-6.56055.76172-2.12812.25381-4.21756.62518-6.26758 1.11328-2.05002.4881-3.90491 1.20934-5.56445 2.16602-1.65954.95667-2.97693 2.25646-3.95313 3.89648-.9762 1.64002-1.46484 3.72751-1.46484 6.26562 0 2.94813.66455 5.43826 1.99219 7.46876 1.34715 2.03049 3.17273 3.58243 5.47656 4.65624 2.30383 1.0543 4.87996 1.58204 7.73047 1.58204 2.47955 0 4.60808-.3616 6.38476-1.08399 1.77669-.72238 3.23089-1.62931 4.36328-2.72265 1.1324-1.09335 1.98264-2.20745 2.54883-3.33985h.35156v6.15039h8.55079v-29.87109c0-3.28003-.56683-5.94607-1.69922-7.99609-1.13239-2.06955-2.5866-3.66058-4.36328-4.77344-1.75716-1.11287-3.65115-1.8732-5.68164-2.28321-2.01098-.42952-3.91473-.64453-5.71094-.64453zm45.73047 0c-3.37767 0-6.37402.56488-8.99024 1.69727-2.61621 1.11287-4.66657 2.66675-6.15039 4.6582-1.48384 1.99145-2.22461 4.31349-2.22461 6.96875 0 3.20194.99487 5.84843 2.98633 7.9375 2.01096 2.08907 5.11483 3.61168 9.3125 4.56836l7.61523 1.66992c2.14766.4881 3.73868 1.20934 4.77344 2.16602 1.05431.95668 1.58203 2.13724 1.58203 3.54297 0 1.73764-.86 3.21334-2.57812 4.42383-1.7181 1.19096-4.01277 1.78515-6.88281 1.78515-2.63575 0-4.7721-.5551-6.41211-1.66797-1.64002-1.13239-2.72481-2.8016-3.25196-5.00781L380.2207 196.25c.7224 3.9829 2.67501 7.0594 5.85742 9.22656 3.18242 2.14764 7.29095 3.22071 12.32813 3.22071 3.63147 0 6.82329-.59615 9.57617-1.78711 2.77241-1.19097 4.93026-2.83086 6.47266-4.91993 1.56193-2.10859 2.34375-4.50881 2.34375-7.20312 0-3.18241-1.01636-5.77027-3.04688-7.76172-2.03049-1.99145-5.11482-3.4652-9.2539-4.42187l-7.14453-1.64063c-2.47955-.58572-4.27581-1.33628-5.38868-2.25391-1.11287-.91762-1.66992-2.12946-1.66992-3.63281 0-1.73764.82874-3.15275 2.48828-4.24609 1.65954-1.11287 3.72944-1.66992 6.20899-1.66992 1.81573 0 3.32858.29318 4.53906.8789 1.21051.58572 2.16823 1.33823 2.87109 2.25586.72237.91763 1.24816 1.88319 1.58008 2.89844l7.9375-1.4043c-.89811-3.51432-2.74322-6.31718-5.53515-8.40625-2.79192-2.10859-6.61899-3.16211-11.48047-3.16211zm46.38867 0c-4.21717 0-7.89763.96557-11.04102 2.89844-3.14335 1.93288-5.58268 4.64778-7.32031 8.14258-1.73765 3.4948-2.60742 7.574-2.60742 12.24023 0 4.64672.86977 8.70832 2.60742 12.1836 1.73763 3.47527 4.17696 6.17845 7.32031 8.11133 3.14339 1.93287 6.82385 2.90039 11.04102 2.90039 4.2172 0 7.89766-.96752 11.04101-2.90039 3.14336-1.93288 5.58462-4.63606 7.32227-8.11133 1.73763-3.47528 2.60547-7.53688 2.60547-12.1836 0-4.66623-.86784-8.74543-2.60547-12.24023-1.73765-3.4948-4.17891-6.2097-7.32227-8.14258-3.14335-1.93287-6.82381-2.89844-11.04101-2.89844zm52.89062 0c-3.37766 0-6.17855.72124-8.40429 2.16602-2.20621 1.44478-3.82657 3.3583-4.86133 5.74023h-.55664v-7.32031h-8.4043v44.98242h8.75586v-26.70898c0-2.38193.44957-4.41274 1.34766-6.0918.91764-1.69859 2.15684-2.98665 3.71875-3.86523 1.58145-.87858 3.38748-1.31836 5.41797-1.31836 2.96766 0 5.3014.92842 7 2.7832 1.69857 1.83526 2.54687 4.38207 2.54687 7.64258v27.55859H513.5v-28.61133c0-3.70956-.63328-6.82515-1.90234-9.34375-1.26907-2.51859-3.05556-4.41258-5.35938-5.68164-2.30382-1.28858-4.98941-1.93164-8.05469-1.93164zm184.38477 0c-2.71383 0-5.29972.39092-7.75977 1.17188-2.46002.76143-4.63743 1.99086-6.53125 3.68945-1.87431 1.67906-3.29921 3.88578-4.27539 6.61914l8.22852 1.87305c.64428-1.58145 1.80726-3.0161 3.48633-4.30469 1.69859-1.30811 4.02061-1.96289 6.96875-1.96289 2.83096 0 4.9595.70365 6.38476 2.10938 1.44476 1.40572 2.16797 3.38766 2.16797 5.94531v.20508c0 1.05429-.38115 1.81462-1.14258 2.2832-.76145.46859-1.98109.81064-3.66015 1.02539-1.67905.19524-3.86623.44933-6.56055.76172-2.12813.25381-4.21756.62518-6.26758 1.11328-2.05001.4881-3.90491 1.20934-5.56445 2.16602-1.65954.95667-2.97692 2.25646-3.95313 3.89648-.9762 1.64002-1.46484 3.72751-1.46484 6.26562 0 2.94813.66454 5.43826 1.99219 7.46876 1.34715 2.03049 3.17274 3.58243 5.47656 4.65624 2.30385 1.0543 4.87997 1.58204 7.73047 1.58204 2.47955 0 4.60808-.3616 6.38476-1.08399 1.77668-.72238 3.23089-1.62931 4.36329-2.72265 1.13239-1.09335 1.98263-2.20745 2.54882-3.33985h.35157v6.15039h8.55078v-29.87109c0-3.28003-.56682-5.94607-1.69922-7.99609-1.1324-2.06955-2.5866-3.66058-4.36328-4.77344-1.75716-1.11287-3.65115-1.8732-5.68164-2.28321-2.01099-.42952-3.91473-.64453-5.71094-.64453zm75.5293 0c-3.37767 0-6.37402.56488-8.99024 1.69727-2.61621 1.11287-4.66657 2.66675-6.15039 4.6582-1.48384 1.99145-2.22656 4.31349-2.22656 6.96875 0 3.20194.99682 5.84843 2.98828 7.9375 2.01099 2.08907 5.11486 3.61168 9.3125 4.56836l7.61523 1.66992c2.14763.4881 3.73866 1.20934 4.77344 2.16602 1.05429.95668 1.58008 2.13724 1.58008 3.54297 0 1.73764-.85805 3.21334-2.57617 4.42383-1.7181 1.19096-4.01279 1.78515-6.88281 1.78515-2.63575 0-4.77403-.5551-6.41407-1.66797-1.64001-1.13239-2.72285-2.8016-3.25-5.00781l-8.46289 1.28711c.7224 3.9829 2.67306 7.0594 5.85547 9.22656 3.18241 2.14764 7.2929 3.22071 12.33008 3.22071 3.63147 0 6.82329-.59615 9.57617-1.78711 2.77241-1.19097 4.93026-2.83086 6.47266-4.91993 1.56193-2.10859 2.34375-4.50881 2.34375-7.20312 0-3.18241-1.01636-5.77027-3.04688-7.76172-2.03049-1.99145-5.11482-3.4652-9.2539-4.42187l-7.14649-1.64063c-2.47954-.58572-4.2758-1.33628-5.38867-2.25391-1.11287-.91762-1.66797-2.12946-1.66797-3.63281 0-1.73764.82874-3.15275 2.48828-4.24609 1.65954-1.11287 3.72944-1.66992 6.20899-1.66992 1.81573 0 3.32855.29318 4.53906.8789 1.21048.58572 2.16823 1.33823 2.87109 2.25586.7224.91763 1.24819 1.88319 1.58008 2.89844l7.9375-1.4043c-.89812-3.51432-2.74324-6.31718-5.53516-8.40625-2.79193-2.10859-6.61898-3.16211-11.48046-3.16211zm46.38867 0c-4.21717 0-7.89766.96557-11.04102 2.89844-3.14338 1.93288-5.58268 4.64778-7.32031 8.14258-1.73765 3.4948-2.60742 7.574-2.60742 12.24023 0 4.64672.86977 8.70832 2.60742 12.1836 1.73763 3.47527 4.17693 6.17845 7.32031 8.11133 3.14336 1.93287 6.82385 2.90039 11.04102 2.90039 4.21719 0 7.89766-.96752 11.04101-2.90039 3.14339-1.93288 5.58464-4.63606 7.32227-8.11133 1.73762-3.47528 2.60547-7.53688 2.60547-12.1836 0-4.66623-.86785-8.74543-2.60547-12.24023-1.73763-3.4948-4.17888-6.2097-7.32227-8.14258-3.14335-1.93287-6.82382-2.89844-11.04101-2.89844zm49.43555 0c-4.17815 0-7.8293.98511-10.95313 2.95703-3.10433 1.97193-5.52605 4.71615-7.26367 8.23047-1.71812 3.51432-2.57617 7.57398-2.57617 12.18164 0 4.66624.85805 8.73762 2.57617 12.21289 1.73762 3.45575 4.19844 6.13939 7.38086 8.05274 3.20194 1.89383 7.01922 2.8418 11.45117 2.8418 3.28002 0 6.1982-.49842 8.75586-1.49415 2.57716-1.01524 4.71547-2.43036 6.41406-4.24609 1.71812-1.83526 2.90846-3.97356 3.57227-6.41406l-8.28711-1.49414c-.52715 1.40573-1.28943 2.58824-2.28516 3.54492-.99573.95668-2.17629 1.67791-3.54297 2.16602-1.36667.46857-2.87952.70312-4.53906.70312-2.55766 0-4.79368-.54533-6.70703-1.63867-1.91335-1.11287-3.40666-2.72539-4.48047-4.83399-.98159-1.96315-1.50652-4.31499-1.57422-7.05664h31.97266v-3.10547c0-4.08051-.54729-7.54597-1.64063-10.39648-1.09334-2.87003-2.58665-5.20184-4.48047-6.99805-1.89384-1.79621-4.03215-3.11554-6.41406-3.95507-2.38193-.83954-4.84078-1.25782-7.3789-1.25782zm92.29492 0c-4.17812 0-7.82927.98511-10.95313 2.95703-3.1043 1.97193-5.52602 4.71615-7.26367 8.23047-1.7181 3.51432-2.57617 7.57398-2.57617 12.18164 0 4.66624.85807 8.73762 2.57617 12.21289 1.73765 3.45575 4.19845 6.13939 7.38086 8.05274 3.20191 1.89383 7.01922 2.8418 11.45117 2.8418 3.28005 0 6.19823-.49842 8.75586-1.49415 2.57718-1.01524 4.71549-2.43036 6.41406-4.24609 1.71813-1.83526 2.90846-3.97356 3.57227-6.41406l-8.28711-1.49414c-.52714 1.40573-1.28943 2.58824-2.28516 3.54492-.99573.95668-2.17629 1.67791-3.54297 2.16602-1.36667.46857-2.87952.70312-4.53906.70312-2.55765 0-4.79368-.54533-6.70703-1.63867-1.91335-1.11287-3.40665-2.72539-4.48047-4.83399-.98157-1.96315-1.50652-4.31499-1.57422-7.05664h31.97266v-3.10547c0-4.08051-.54728-7.54597-1.64063-10.39648-1.09334-2.87003-2.58664-5.20184-4.48046-6.99805-1.89382-1.79621-4.03213-3.11554-6.41407-3.95507-2.38193-.83954-4.84077-1.25782-7.3789-1.25782zm-402.55078.58594 13.23632 44.98242h8.9043l9.13672-32.47851h.67383l9.13672 32.47851h8.93164l13.20898-44.98242h-9.05078l-8.75586 32.88672h-.43945l-8.78516-32.88672h-9.04883l-8.8457 33.0332h-.43945l-8.81446-33.0332h-9.04882zm335.13476 0 16.33984 44.98242h9.37305l16.3125-44.98242h-9.40234l-11.36133 34.61524h-.46875l-11.39258-34.61524h-9.40039zm-573.11328 6.64648c2.26479 0 4.23695.51797 5.91602 1.55274 1.69859 1.03477 3.01597 2.44989 3.95312 4.24609.93715 1.77669 1.40625 3.81727 1.40625 6.1211h-23.37695c.10526-1.93344.58522-3.73985 1.4414-5.41797.99573-1.93288 2.40107-3.49458 4.2168-4.68555 1.83526-1.21049 3.98334-1.81641 6.44336-1.81641zm548.29297 0c2.26477 0 4.23695.51797 5.91601 1.55274 1.6986 1.03477 3.01598 2.44989 3.95313 4.24609.93717 1.77669 1.40625 3.81727 1.40625 6.1211h-23.37695c.10526-1.93344.58522-3.73985 1.4414-5.41797.99573-1.93288 2.40106-3.49458 4.2168-4.68555 1.83526-1.21049 3.98334-1.81641 6.44336-1.81641zm92.29492 0c2.26479 0 4.23695.51797 5.91602 1.55274 1.69857 1.03477 3.01595 2.44989 3.95312 4.24609.93715 1.77669 1.40625 3.81727 1.40625 6.1211h-23.37695c.10526-1.93344.58524-3.73985 1.4414-5.41797.99573-1.93288 2.40107-3.49458 4.2168-4.68555 1.83526-1.21049 3.98334-1.81641 6.44336-1.81641zm-894.615234.0879c2.733362 0 4.998714.73296 6.794922 2.19726 1.796208 1.4643 3.123366 3.40715 3.982422 5.82813.878581 2.40145 1.318359 5.03622 1.318359 7.90625 0 2.88955-.439778 5.53604-1.318359 7.9375-.859056 2.40145-2.186214 4.32475-3.982422 5.76953-1.796208 1.44477-4.06156 2.16601-6.794922 2.16601-2.752884 0-5.037782-.72124-6.853515-2.16601-1.796208-1.44478-3.133138-3.36808-4.011719-5.76953-.859057-2.40146-1.289063-5.04795-1.289063-7.9375 0-2.87003.430006-5.5048 1.289063-7.90625.878581-2.42098 2.215511-4.36383 4.011719-5.82813 1.815733-1.4643 4.100631-2.19726 6.853515-2.19726zm152.537114 0c2.73335 0 4.99688.73296 6.79296 2.19726 1.79621 1.4643 3.12532 3.40715 3.98438 5.82813.87858 2.40145 1.31641 5.03622 1.31641 7.90625 0 2.88955-.43783 5.53604-1.31641 7.9375-.85906 2.40145-2.18817 4.32475-3.98438 5.76953-1.79621 1.44477-4.05961 2.16601-6.79296 2.16601-2.75289 0-5.03779-.72124-6.85352-2.16601-1.79621-1.44478-3.13314-3.36808-4.01172-5.76953-.85906-2.40146-1.28906-5.04795-1.28906-7.9375 0-2.87003.43-5.5048 1.28906-7.90625.87858-2.42098 2.21551-4.36383 4.01172-5.82813 1.81573-1.4643 4.10063-2.19726 6.85352-2.19726zm241.12695 0c2.73335 0 4.99871.73296 6.79492 2.19726 1.79621 1.4643 3.12336 3.40715 3.98242 5.82813.87859 2.40145 1.31836 5.03622 1.31836 7.90625 0 2.88955-.43977 5.53604-1.31836 7.9375-.85906 2.40145-2.18621 4.32475-3.98242 5.76953-1.79621 1.44477-4.06157 2.16601-6.79492 2.16601-2.75288 0-5.03778-.72124-6.85352-2.16601-1.7962-1.44478-3.13313-3.36808-4.01172-5.76953-.85903-2.40146-1.28906-5.04795-1.28906-7.9375 0-2.87003.43003-5.5048 1.28906-7.90625.87859-2.42098 2.21552-4.36383 4.01172-5.82813 1.81574-1.4643 4.10064-2.19726 6.85352-2.19726zm359.19336 0c2.73335 0 4.99673.73296 6.79297 2.19726 1.7962 1.4643 3.12534 3.40715 3.98437 5.82813.87859 2.40145 1.31641 5.03622 1.31641 7.90625 0 2.88955-.43782 5.53604-1.31641 7.9375-.85903 2.40145-2.18817 4.32475-3.98437 5.76953-1.79624 1.44477-4.05962 2.16601-6.79297 2.16601-2.75288 0-5.03778-.72124-6.85352-2.16601-1.79621-1.44478-3.13315-3.36808-4.01172-5.76953-.85906-2.40146-1.28906-5.04795-1.28906-7.9375 0-2.87003.43-5.5048 1.28906-7.90625.87857-2.42098 2.21551-4.36383 4.01172-5.82813 1.81574-1.4643 4.10064-2.19726 6.85352-2.19726zm-442.64453 16.2246v5.79883c0 1.77669-.45933 3.4459-1.37696 5.00782-.8981 1.54239-2.21548 2.79137-3.95312 3.74804-1.71811.95668-3.78801 1.43555-6.20899 1.43555-2.47954 0-4.52012-.54533-6.12109-1.63867-1.60097-1.11287-2.40039-2.75471-2.40039-4.92188 0-1.56192.40851-2.81089 1.22852-3.74804.83953-.95668 1.95363-1.68769 3.33984-2.19532 1.40573-.50763 2.95766-.86923 4.65625-1.08398.72239-.09761 1.61954-.2149 2.69336-.35156 1.07382-.15619 2.17815-.32233 3.31055-.49805 1.13239-.19524 2.13704-.42002 3.01562-.67383.8981-.27333 1.50402-.56652 1.81641-.87891zm329.39453 0v5.79883c0 1.77669-.45934 3.4459-1.37696 5.00782-.89811 1.54239-2.21549 2.79137-3.95312 3.74804-1.71812.95668-3.78802 1.43555-6.20898 1.43555-2.47955 0-4.52012-.54533-6.1211-1.63867-1.60096-1.11287-2.40234-2.75471-2.40234-4.92188 0-1.56192.41046-2.81089 1.23047-3.74804.83953-.95668 1.95364-1.68769 3.33984-2.19532 1.40573-.50763 2.95768-.86923 4.65625-1.08398.72239-.09761 1.61955-.2149 2.69336-.35156 1.07384-.15619 2.17818-.32233 3.31055-.49805 1.13239-.19524 2.13703-.42002 3.01562-.67383.89809-.27333 1.50402-.56652 1.81641-.87891z" transform="scale(.26458)"/>
</svg>
