<svg version="1.1" viewBox="0.0 0.0 480.0 480.0" fill="none" stroke="none" stroke-linecap="square" stroke-miterlimit="10" xmlns:xlink="http://www.w3.org/1999/xlink" xmlns="http://www.w3.org/2000/svg"><clipPath id="p.0"><path d="m0 0l480.0 0l0 480.0l-480.0 0l0 -480.0z" clip-rule="nonzero"/></clipPath><g clip-path="url(#p.0)"><path fill="#ffffff" d="m0 0l480.0 0l0 480.0l-480.0 0z" fill-rule="evenodd"/><path fill="#dd4d4d" d="m0 0l480.0 0l0 480.0l-480.0 0z" fill-rule="evenodd"/><path fill="#ffffff" d="m147.82498 241.9897c-8.098694 0 -14.030029 2.5682983 -17.794006 7.704895c-3.7503967 5.1365967 -5.625595 11.543747 -5.625595 19.221481c0 7.4331055 1.8344345 13.860657 5.503296 19.282623c3.6824493 5.4219666 9.824417 8.132965 18.425858 8.132965c7.9356384 0 13.7378845 -2.4799805 17.406738 -7.439911c3.668869 -4.9735413 5.503296 -11.421478 5.503296 -19.34378c0 -8.683319 -2.0042725 -15.443787 -6.012863 -20.281433c-4.0085754 -4.851227 -9.810822 -7.27684 -17.406723 -7.27684zm89.164185 0c-8.098694 0 -14.030014 2.5682983 -17.794006 7.704895c-3.7503967 5.1365967 -5.625595 11.543747 -5.625595 19.221481c0 7.4331055 1.8344269 13.860657 5.503296 19.282623c3.6824646 5.4219666 9.824417 8.132965 18.425873 8.132965c3.2476196 0 6.1691284 -0.4552307 8.764511 -1.3656921l-12.270325 -12.658051l10.517426 -10.395508l12.779877 13.147278c2.0790405 -4.171814 3.1185303 -9.342377 3.1185303 -15.511719c0 -8.683319 -2.0042725 -15.443787 -6.012848 -20.281433c-4.0085907 -4.851227 -9.810822 -7.27684 -17.406738 -7.27684zm-161.91974 -13.534531l0 14.288712l-11.393871 0l0 52.85399l21.279423 0l2.5070648 -15.797089l14.288193 1.2637634l-2.5070572 28.801636l-61.10701 0l0 -14.268311l8.764515 0l0 -52.85399l-8.764515 0l0 -14.288712zm364.29697 0l2.5070496 23.807724l-14.267822 1.243393l-2.5070496 -10.762405l-22.298553 0l0 19.160324l34.303894 0l0 14.146027l-34.303894 0l0 19.547638l23.032318 0l2.50708 -10.782806l14.2881775 1.263794l-2.5070496 23.787323l-62.859924 0l0 -14.268311l8.764526 0l0 -52.85399l-8.764526 0l0 -14.288712zm-291.41913 -1.243393c13.0312805 0 23.195389 4.1106415 30.49237 12.331924c7.310547 8.221268 10.965836 18.052826 10.965836 29.49469c0 11.523376 -3.696045 21.416077 -11.088135 29.678131c-7.3784943 8.262024 -17.664917 12.393066 -30.859253 12.393066c-13.275864 0 -23.467155 -4.1310425 -30.573883 -12.393066c-7.0931396 -8.262054 -10.639709 -18.073242 -10.639709 -29.433533c0 -11.849518 3.7571945 -21.823761 11.271568 -29.922745c7.5143814 -8.098984 17.65812 -12.148468 30.431206 -12.148468zm221.04752 1.243393l0 14.288712l-7.276581 0l0 33.428665c0 5.761688 -1.0870972 11.31955 -3.2612305 16.673553c-2.160553 5.340454 -5.788666 9.72287 -10.884308 13.147247c-5.095642 3.4108276 -11.984955 5.1162415 -20.667938 5.1162415c-12.351868 0 -21.075592 -3.3972168 -26.171265 -10.191681c-5.095642 -6.8080444 -7.643463 -14.594452 -7.643463 -23.359283l0 -34.814743l-7.256195 0l0 -14.288712l33.57013 0l0 14.288712l-9.518677 0l0 34.30516c0 5.5986023 1.3520508 10.212036 4.0561523 13.840271c2.7176514 3.6282349 7.3309326 5.4423523 13.839752 5.4423523c6.4273376 0 11.08136 -1.8345032 13.962097 -5.5035095c2.8807373 -3.6690063 4.321106 -8.554199 4.321106 -14.655609l0 -33.428665l-9.518677 0l0 -14.288712zm-131.88332 -1.243393c13.031265 0 23.195389 4.1106415 30.492355 12.331924c7.310547 8.221268 10.96582 18.052826 10.96582 29.49469c0 11.020569 -3.2136536 20.36972 -9.640961 28.047455l8.254944 8.520233l-10.517395 10.395508l-9.376007 -9.641327c-6.101181 3.1662292 -12.990509 4.7493286 -20.667938 4.7493286c-13.275864 0 -23.467163 -4.1310425 -30.573898 -12.393066c-7.0931396 -8.262054 -10.639709 -18.073242 -10.639709 -29.433533c0 -11.849518 3.757187 -21.823761 11.271576 -29.922745c7.514374 -8.098984 17.658112 -12.148468 30.431213 -12.148468zm-205.11044 -32.185272l0 141.52147l416.0076 0l0 -141.52147z" fill-rule="evenodd"/><path fill="#ffffff" d="m56.422188 375.09555l0 5.4180603l-6.848133 0l0 44.10092l6.848133 0l0 5.404297l-20.021847 0l0 -5.404297l6.930641 0l0 -44.10092l-6.930641 0l0 -5.4180603zm62.689148 0l0 5.4180603l-6.8481293 0l0 49.50522l-3.9603653 0l-31.861687 -43.262054l-0.33002472 0l0 37.857758l8.690796 0l0 5.404297l-20.943176 0l0 -5.404297l6.3393326 0l0 -44.10092l-7.274418 0l0 -5.4180603l11.826092 0l31.270378 42.34073l0.33003235 0l0 -36.92267l-8.278267 0l0 -5.4180603zm92.17095 0l1.6914062 16.735504l-5.4867554 0.42630005l-1.6914062 -11.743744l-12.252365 0l0 44.10092l9.722137 0l0 5.404297l-25.35733 0l0 -5.404297l9.474625 0l0 -44.10092l-12.169876 0l-1.6914062 11.743744l-5.404251 -0.42630005l1.5951538 -16.735504zm26.619568 0l0 5.4180603l-6.8481293 0l0 44.10092l6.8481293 0l0 5.404297l-20.021835 0l0 -5.404297l6.9306335 0l0 -44.10092l-6.9306335 0l0 -5.4180603zm48.236572 0l1.6914062 16.735504l-5.4867554 0.42630005l-1.6914062 -11.743744l-12.25238 0l0 44.10092l9.722137 0l0 5.404297l-25.35733 0l0 -5.404297l9.47464 0l0 -44.10092l-12.169876 0l-1.6914062 11.743744l-5.404251 -0.42630005l1.5951385 -16.735504zm108.31329 0l1.6914062 16.735504l-5.4867554 0.42630005l-1.6914062 -11.743744l-12.25238 0l0 44.10092l9.722137 0l0 5.404297l-25.35733 0l0 -5.404297l9.47464 0l0 -44.10092l-12.169891 0l-1.6914062 11.743744l-5.404236 -0.42630005l1.5951538 -16.735504zm46.723938 0l1.6914062 15.552887l-5.4042664 0.5913086l-1.6914062 -10.726135l-21.630737 0l0 18.921997l25.934906 0l0 5.4043274l-25.934906 0l0 19.774597l22.387054 0l1.6914062 -10.739899l5.321747 0.605072l-1.6088867 15.539124l-40.882507 0l0 -5.404297l6.9306335 0l0 -44.10092l-6.9306335 0l0 -5.4180603zm-297.56573 -0.83883667c3.0436096 0 6.114731 0.4216919 9.213348 1.2651367c3.0986176 0.8434143 5.5188446 1.9435425 7.260666 3.3003235l0.5088043 10.891174l-5.0742188 0.50878906l-0.83883667 -8.195862c-1.7418213 -0.8984375 -3.5157318 -1.503479 -5.3217316 -1.8151855c-1.8059998 -0.31170654 -3.5249176 -0.4675598 -5.156723 -0.4675598c-3.4378204 0 -6.2109985 0.7746582 -8.319519 2.3240051c-2.1085358 1.5493164 -3.162796 3.790802 -3.162796 6.724457c0 3.4378662 1.2651215 5.748108 3.7953491 6.930725c2.5393982 1.1826172 5.353821 2.136078 8.443283 2.860321c2.4843903 0.5683899 5.120041 1.2880249 7.906967 2.158966c2.7869263 0.87091064 5.1796417 2.3652344 7.1781616 4.482971c1.9985199 2.108551 2.9977875 5.248474 2.9977875 9.419739c0 5.289734 -1.8747559 9.314331 -5.6242676 12.0737915c-3.7403564 2.7594604 -8.397446 4.1391907 -13.971298 4.1391907c-7.664032 0 -13.549576 -1.4897461 -17.656624 -4.4692383l1.1826096 -10.822388l5.0604706 0.50878906l-0.33003235 6.9307556c1.8610077 0.9534302 3.7174225 1.5997314 5.5692596 1.9389343c1.8610077 0.33920288 3.8045197 0.5088196 5.830536 0.5088196c3.6119995 0 6.7243805 -0.7746887 9.337112 -2.3240051c2.6219025 -1.5493164 3.9328613 -4.1804504 3.9328613 -7.893341c0 -4.1712646 -1.4393005 -6.8894653 -4.3179016 -8.154602c-2.8694153 -1.2651367 -5.990967 -2.2919006 -9.364609 -3.0803223c-2.5944061 -0.5683899 -5.1613007 -1.2880554 -7.700699 -2.158966c-2.530243 -0.87094116 -4.6433563 -2.2506714 -6.33934 -4.1391907c-1.6868286 -1.8885498 -2.5302353 -4.634247 -2.5302353 -8.237122c0 -5.179718 1.7326584 -9.007202 5.197975 -11.482483c3.4653168 -2.4844055 7.563202 -3.7266235 12.29364 -3.7266235zm203.0312 0.83883667l0 5.4180603l-5.321747 0l0 26.95285c0 3.8778992 -0.66464233 7.609131 -1.993927 11.193695c-1.3201294 3.5753784 -3.5707397 6.504425 -6.7518616 8.78717c-3.1811218 2.2735596 -7.5906982 3.4103699 -13.228729 3.4103699c-8.168243 0 -13.787933 -2.2644043 -16.85904 -6.7932434c-3.0619507 -4.537964 -4.592926 -9.763519 -4.592926 -15.676636l0 -27.874207l-5.6655273 0l0 -5.4180603l19.513062 0l0 5.4180603l-7.6044617 0l0 27.709167c0 5.4089355 1.2651062 9.607697 3.7953491 12.596344c2.5393982 2.9794922 6.458496 4.469208 11.757324 4.469208c10.533478 0 15.800201 -5.940613 15.800201 -17.821869l0 -26.95285l-7.8657227 0l0 -5.4180603zm-314.64117 -22.552399l0 95.47635l416.02383 0l0 -95.47635z" fill-rule="evenodd"/><path fill="#ffffff" d="m33.3359 133.4214l-1.3360538 13.897461l4.487768 0.3540039l1.4045715 -9.752197l11.784676 0l0 36.622147l-7.856453 0l0 4.487854l21.045696 0l0 -4.487854l-8.061996 0l0 -36.622147l11.784676 0l1.4045715 9.752197l4.556282 -0.3540039l-1.4045639 -13.897461z" fill-rule="evenodd"/><path fill="#ffffff" d="m76.97207 133.4214l0 4.4992676l5.75531 0l0 36.622147l-5.75531 0l0 4.487854l16.626442 0l0 -4.487854l-5.7553024 0l0 -16.558182l25.327919 0l0 16.558182l-5.743889 0l0 4.487854l16.626442 0l0 -4.487854l-5.75531 0l0 -36.622147l5.75531 0l0 -4.4992676l-16.626442 0l0 4.4992676l5.743889 0l0 15.71315l-25.327919 0l0 -15.71315l5.7553024 0l0 -4.4992676z" fill-rule="evenodd"/><path fill="#ffffff" d="m129.9428 133.4214l0 4.4992676l5.75531 0l0 36.622147l-5.75531 0l0 4.487854l33.960876 0l1.324646 -12.903976l-4.4192657 -0.50245667l-1.3931427 8.918579l-18.601974 0l0 -16.421158l21.548141 0l0 -4.4878387l-21.548141 0l0 -15.71315l17.962494 0l1.4045715 8.907166l4.4877625 -0.4910431l-1.4045563 -12.91539z" fill-rule="evenodd"/></g></svg>