<?xml version="1.0" encoding="UTF-8" standalone="no"?>
<!-- Generator: Adobe Illustrator 25.4.1, SVG Export Plug-In . SVG Version: 6.00 Build 0)  -->

<svg
   version="1.1"
   id="Layer_1"
   x="0px"
   y="0px"
   viewBox="0 0 1738.61 473.17"
   style="enable-background:new 0 0 1738.61 473.17;"
   xml:space="preserve"
   sodipodi:docname="mypixl logo copy.svg"
   inkscape:version="1.1 (c4e8f9e, 2021-05-24)"
   xmlns:inkscape="http://www.inkscape.org/namespaces/inkscape"
   xmlns:sodipodi="http://sodipodi.sourceforge.net/DTD/sodipodi-0.dtd"
   xmlns="http://www.w3.org/2000/svg"
   xmlns:svg="http://www.w3.org/2000/svg"><defs
   id="defs38" /><sodipodi:namedview
   id="namedview36"
   pagecolor="#ffffff"
   bordercolor="#111111"
   borderopacity="1"
   inkscape:pageshadow="0"
   inkscape:pageopacity="0"
   inkscape:pagecheckerboard="1"
   showgrid="false"
   inkscape:zoom="0.65742173"
   inkscape:cx="236.53006"
   inkscape:cy="258.58592"
   inkscape:current-layer="Layer_1" />
<style
   type="text/css"
   id="style7">
	.st0{fill:#333333;}
	.st1{fill:#FF4A91;}
	.st2{opacity:0.5;fill:#CCCCCC;}
</style>
<g
   id="g19"
   style="stroke:none">
	<g
   id="g17"
   style="stroke:none">
		<path
   class="st0"
   d="M1103.55,165.58v20.49l2.46,5.94v214.56c0,4.78,0.48,8.2,1.43,10.25c0.95,2.05,2.39,3.55,4.3,4.51l6.76,2.05    c2.59,1.09,4.47,2.42,5.63,4c1.16,1.57,1.74,3.79,1.74,6.66c0,2.87-0.99,5.23-2.97,7.07c-1.98,1.84-4.82,2.77-8.5,2.77h-87.5    c-3.83,0-6.73-0.89-8.71-2.66c-1.98-1.78-2.97-4.17-2.97-7.17c0-2.87,0.54-5.06,1.64-6.56c1.09-1.5,3-2.87,5.74-4.1l5.53-1.84    c2.05-1.09,3.52-2.63,4.41-4.61c0.89-1.98,1.33-5.43,1.33-10.35v-199.8c0-3.41-0.51-5.97-1.54-7.68c-1.03-1.71-2.5-2.77-4.41-3.18    l-7.17-1.23c-2.46-0.82-4.24-1.98-5.33-3.48c-1.09-1.5-1.64-3.41-1.64-5.74c0-2.46,0.78-4.51,2.36-6.15    c1.57-1.64,4.27-3.35,8.09-5.12l44.88-16.19c4.92-2.18,8.95-3.65,12.09-4.41c3.14-0.75,6.15-1.13,9.02-1.13    c4.51,0,7.85,1.23,10.04,3.69C1102.46,158.61,1103.55,161.75,1103.55,165.58z M1094.53,215.58l-10.04-11.27    c10.38-16.26,22.06-29,35.04-38.22c12.98-9.22,27.73-13.83,44.26-13.83c15.98,0,29.99,3.96,42.01,11.89    c12.02,7.92,21.58,18.96,28.69,33.1c7.1,14.14,10.66,30.64,10.66,49.49c0,21.72-4.24,40.61-12.71,56.66    c-8.47,16.05-20.05,28.45-34.73,37.19c-14.69,8.74-31.25,13.12-49.69,13.12c-15.16,0-28.31-3.31-39.45-9.94    c-11.14-6.62-20.53-16.36-28.18-29.2l15.98-14.75c5.19,9.29,10.72,15.98,16.6,20.08c5.87,4.1,12.57,6.15,20.08,6.15    c7.24,0,13.66-2.46,19.26-7.38c5.6-4.92,10.07-12.63,13.42-23.16c3.35-10.52,5.02-24.11,5.02-40.78c0-16.12-1.61-29.2-4.82-39.24    c-3.21-10.04-7.58-17.42-13.12-22.13c-5.53-4.71-11.85-7.07-18.96-7.07c-7.65,0-14.75,2.36-21.31,7.07    C1106.01,198.06,1100,205.47,1094.53,215.58z"
   id="path9"
   style="stroke:none" />
		<path
   class="st0"
   d="M1357.45,165.78v145.29c0,4.65,0.48,7.99,1.43,10.04c0.95,2.05,2.32,3.69,4.1,4.92l5.94,1.84    c2.32,0.96,4.1,2.25,5.33,3.89c1.23,1.64,1.84,3.89,1.84,6.76c0,3.01-0.99,5.4-2.97,7.17c-1.98,1.78-4.89,2.66-8.71,2.66h-86.27    c-3.83,0-6.76-0.89-8.81-2.66c-2.05-1.77-3.07-4.17-3.07-7.17c0-2.87,0.61-5.09,1.84-6.66c1.23-1.57,3.07-2.9,5.53-4l5.74-1.84    c2.18-1.23,3.72-2.83,4.61-4.82c0.89-1.98,1.33-5.36,1.33-10.14v-104.1c0-3.41-0.58-5.97-1.74-7.68    c-1.16-1.71-2.77-2.77-4.82-3.18l-6.56-1.43c-2.46-0.82-4.24-1.95-5.33-3.38c-1.09-1.43-1.64-3.38-1.64-5.84s0.75-4.51,2.25-6.15    c1.5-1.64,4.17-3.21,7.99-4.71l47.75-16.6c5.33-2.18,9.46-3.62,12.4-4.3c2.94-0.68,5.91-1.02,8.92-1.02c3.96,0,7.1,1.2,9.43,3.59    C1356.29,158.64,1357.45,161.82,1357.45,165.78z M1318.1,131.56c-12.84,0-23.09-3.35-30.74-10.04    c-7.65-6.69-11.48-15.44-11.48-26.23c0-10.93,3.82-19.74,11.48-26.44c7.65-6.69,17.9-10.04,30.74-10.04    c12.84,0,23.09,3.35,30.74,10.04c7.65,6.7,11.48,15.51,11.48,26.44c0,10.79-3.83,19.54-11.48,26.23    C1341.19,128.21,1330.94,131.56,1318.1,131.56z"
   id="path11"
   style="stroke:none" />
		<path
   class="st0"
   d="M1465.85,245.29l15.57,10.45l-32.38,44.88c-4.78,6.83-7,12.16-6.66,15.98c0.34,3.83,2.83,6.63,7.48,8.4    l6.15,2.66c2.32,1.37,4.1,2.8,5.33,4.3c1.23,1.5,1.84,3.48,1.84,5.94c0,3.28-1.13,5.81-3.38,7.58c-2.25,1.78-5.16,2.66-8.71,2.66    h-52.46c-3.96,0-6.97-0.89-9.02-2.66c-2.05-1.77-3.07-4.23-3.07-7.38c0-2.73,0.65-5.02,1.95-6.87c1.3-1.84,3.93-3.72,7.89-5.64    c4.1-1.64,7.89-3.82,11.37-6.56c3.48-2.73,7-6.18,10.55-10.35c3.55-4.17,7.65-9.39,12.3-15.68L1465.85,245.29z M1496.59,193.04    l34.02,47.75l3.28,3.48l47.95,65.37c4.23,5.6,7.58,9.6,10.04,11.99c2.46,2.39,4.99,4.34,7.58,5.84c2.46,1.5,4.3,2.97,5.53,4.41    s1.84,3.52,1.84,6.25c0,3.01-1.06,5.47-3.18,7.38c-2.12,1.92-5.02,2.87-8.71,2.87H1497c-3.96,0-7.07-0.92-9.32-2.77    c-2.25-1.84-3.38-4.47-3.38-7.89c0-2.46,0.48-4.41,1.43-5.84c0.96-1.43,2.39-2.49,4.3-3.18l6.56-2.05c3-1.09,4.64-2.63,4.92-4.61    c0.27-1.98-0.96-4.95-3.69-8.91l-34.43-48.98l-3.28-4.3l-46.31-65.58c-3.14-4.37-6.15-7.65-9.02-9.84    c-2.87-2.18-5.81-4.03-8.81-5.53c-2.6-1.23-4.58-2.73-5.94-4.51c-1.37-1.77-2.05-3.89-2.05-6.35c0-3.28,1.09-5.87,3.28-7.79    c2.18-1.91,5.12-2.87,8.81-2.87h96.11c3.69,0,6.56,0.96,8.61,2.87c2.05,1.92,3.07,4.37,3.07,7.38c0,2.19-0.41,4.07-1.23,5.64    c-0.82,1.57-1.98,2.97-3.48,4.2l-5.94,2.25c-2.6,1.37-4,3.01-4.2,4.92C1492.8,186.55,1494,189.35,1496.59,193.04z M1524.05,260.66    l-15.57-9.43l34.63-47.34c4.51-6.01,6.35-11.17,5.53-15.47c-0.82-4.3-3.62-7.41-8.4-9.32l-4.92-1.23    c-2.32-1.36-4.07-2.87-5.23-4.51c-1.16-1.64-1.74-3.55-1.74-5.74c0-3,1.06-5.46,3.18-7.38c2.12-1.91,5.02-2.87,8.71-2.87h52.05    c3.82,0,6.79,0.92,8.91,2.77c2.12,1.84,3.18,4.34,3.18,7.48c0,2.46-0.69,4.51-2.05,6.15c-1.37,1.64-3.62,3.35-6.76,5.12    c-6.7,3.01-12.37,6.97-17.01,11.89c-4.65,4.92-10.79,12.16-18.44,21.72L1524.05,260.66z"
   id="path13"
   style="stroke:none" />
		<path
   class="st0"
   d="M1712.17,53.89v257.18c0,4.65,0.48,7.99,1.43,10.04c0.96,2.05,2.39,3.69,4.3,4.92l5.74,1.84    c2.46,1.09,4.3,2.43,5.53,4c1.23,1.57,1.84,3.79,1.84,6.66c0,3.01-0.99,5.4-2.97,7.17c-1.98,1.78-4.95,2.66-8.91,2.66h-86.27    c-3.83,0-6.73-0.89-8.71-2.66c-1.98-1.77-2.97-4.17-2.97-7.17c0-2.87,0.62-5.05,1.84-6.56c1.23-1.5,3.07-2.94,5.53-4.3l5.94-1.64    c1.91-1.23,3.31-2.83,4.2-4.82c0.89-1.98,1.33-5.36,1.33-10.14V95.49c0-3.96-0.51-6.69-1.54-8.2c-1.02-1.5-2.56-2.53-4.61-3.07    l-6.76-1.23c-2.46-0.82-4.27-1.91-5.43-3.28c-1.16-1.36-1.74-3.28-1.74-5.74c0-2.59,0.78-4.78,2.36-6.56    c1.57-1.77,4.27-3.28,8.09-4.51l47.54-16.8c5.19-1.91,9.32-3.28,12.4-4.1c3.07-0.82,5.98-1.23,8.71-1.23    c4.23,0,7.48,1.2,9.73,3.59C1711.04,46.75,1712.17,49.93,1712.17,53.89z"
   id="path15"
   style="stroke:none" />
	</g>
</g>
<g
   id="g27"
   style="stroke:none">
	<g
   id="g25"
   style="stroke:none">
		<path
   class="st1"
   d="M562.47,301.24L586.25,233c3.55-10.25,4.71-17.9,3.48-22.95c-1.23-5.05-5.12-7.58-11.68-7.58    s-13.49,2.56-20.8,7.68c-7.31,5.12-14.31,12.4-21,21.82c-6.7,9.43-12.43,20.49-17.21,33.2c-2.46,7.38-4.58,13.46-6.35,18.24    c-1.78,4.78-2.94,8.68-3.48,11.68c-0.55,3.01-0.82,5.81-0.82,8.4c0,3.69,0.62,7.45,1.84,11.27c1.23,3.83,1.84,7.99,1.84,12.5    c0,7.79-3.79,14.01-11.37,18.65s-18.07,6.97-31.46,6.97c-12.02,0-19.3-4.58-21.82-13.73c-2.53-9.15-0.45-21.58,6.25-37.3    l28.48-72.75c4.37-10.38,6.35-17.55,5.94-21.52c-0.41-3.96-2.8-5.94-7.17-5.94c-2.05,0-4.24,0.51-6.56,1.54    c-2.32,1.02-5.06,2.77-8.2,5.23c-2.33,1.37-4.44,2.22-6.35,2.56c-1.91,0.34-3.62,0.17-5.12-0.51c-3.01-0.96-4.65-3.38-4.92-7.28    c-0.28-3.89,1.02-8.09,3.89-12.6c6.28-9.7,14.96-17.52,26.03-23.46c11.07-5.94,22.34-8.91,33.81-8.91c9.15,0,16.12,1.88,20.9,5.63    c4.78,3.76,7.17,9.26,7.17,16.5c0,5.19-1.2,10.83-3.59,16.91c-2.39,6.08-5.3,12.6-8.71,19.57c-3.42,6.97-6.76,14.69-10.04,23.16    c-3.28,8.47-5.88,17.76-7.79,27.87l-7.79-1.43c10.93-26.5,22.88-47.68,35.86-63.53c12.98-15.85,26.33-27.25,40.06-34.22    c13.73-6.97,26.88-10.45,39.45-10.45c9.7,0,16.94,2.02,21.72,6.04c4.78,4.03,7.1,9.67,6.97,16.91c-0.14,5.6-1.27,11.61-3.38,18.03    c-2.12,6.42-4.82,13.32-8.09,20.7c-3.28,7.38-6.56,15-9.84,22.85c-3.28,7.86-5.88,16.22-7.79,25.1l-7.38-1.84    c7.51-18.85,15.95-35.14,25.31-48.88c9.36-13.73,19.09-24.9,29.2-33.5c10.11-8.61,20.32-14.99,30.64-19.16    c10.31-4.17,20.25-6.25,29.82-6.25c11.48,0,19.47,3.04,23.98,9.12c4.51,6.08,6.35,14.04,5.53,23.87    c-0.82,9.84-3.48,20.83-7.99,32.99l-20.29,56.76c-3.28,8.88-4.82,15.4-4.61,19.57c0.21,4.17,2.29,6.25,6.25,6.25    c2.05,0,4.13-0.44,6.25-1.33c2.12-0.89,4.61-2.42,7.48-4.61c2.05-1.23,3.82-2.08,5.33-2.56c1.5-0.48,2.94-0.17,4.3,0.92    c2.46,1.23,3.93,3.62,4.41,7.17c0.48,3.55-0.72,8.13-3.59,13.73c-5.33,9.43-12.95,17.25-22.85,23.46    c-9.91,6.21-20.87,9.32-32.89,9.32c-11.2,0-19.2-2.46-23.98-7.38c-4.78-4.92-7.11-11.82-6.97-20.7    c0.13-8.88,2.05-18.92,5.74-30.12l21.11-61.48c3.55-9.97,4.75-17.59,3.59-22.85c-1.16-5.26-5.09-7.89-11.78-7.89    c-6.7,0-13.77,2.6-21.21,7.79c-7.45,5.19-14.58,12.74-21.42,22.64c-6.83,9.91-12.71,21.96-17.62,36.17    c-2.6,6.97-4.58,12.57-5.94,16.8c-1.37,4.24-2.39,7.65-3.07,10.25c-0.69,2.6-1.02,4.85-1.02,6.76c0,4.24,0.78,8.2,2.36,11.89    c1.57,3.69,2.29,7.79,2.15,12.29c-0.28,7.79-3.79,14.01-10.55,18.65s-15.75,6.97-26.95,6.97c-9.43,0-16.02-2.39-19.78-7.17    c-3.76-4.78-5.47-11.1-5.12-18.96C557.38,318.69,559.2,310.26,562.47,301.24z"
   id="path21"
   style="stroke:none" />
		<path
   class="st1"
   d="M906.34,235.05c8.88-25.41,18.27-44.6,28.18-57.58c9.9-12.98,21.34-19.47,34.33-19.47    c8.06,0,14.31,2.46,18.75,7.38c4.44,4.92,6.66,11.68,6.66,20.29c0,9.02-2.39,16.57-7.17,22.64c-4.78,6.08-11.96,11.31-21.52,15.68    c-5.33,2.19-10.14,4.71-14.45,7.58c-4.3,2.87-8.33,6.63-12.09,11.27c-3.76,4.65-7.38,10.49-10.86,17.52    c-3.48,7.04-7.35,15.68-11.58,25.92l-28.28,77.46c-6.56,18.99-15.27,34.84-26.13,47.54c-10.86,12.71-23.43,22.23-37.71,28.59    c-14.28,6.35-29.89,9.53-46.83,9.53c-15.85,0-27.94-3.45-36.27-10.35c-8.33-6.9-12.5-16.02-12.5-27.36    c0-7.38,2.43-13.56,7.28-18.55c4.85-4.99,11.24-7.48,19.16-7.48c4.1,0,7.65,1.03,10.66,3.07c3.01,2.05,5.84,4.64,8.5,7.79    c2.66,3.14,5.16,6.18,7.48,9.12c2.32,2.94,4.85,5.46,7.58,7.58c2.73,2.12,5.94,3.18,9.63,3.18c4.37,0,8.61-1.13,12.71-3.38    c4.1-2.25,7.75-5.53,10.96-9.84c3.21-4.3,5.74-9.8,7.58-16.5c1.84-6.7,2.77-14.42,2.77-23.16c0-5.47-0.21-11.75-0.62-18.85    c-0.41-7.1-0.82-14.82-1.23-23.16c-0.41-8.33-0.99-16.94-1.74-25.82c-0.75-8.88-1.54-17.76-2.36-26.64    c-0.82-8.88-1.74-17.49-2.77-25.82c-1.02-8.33-1.81-15.85-2.36-22.54c-0.69-6.83-2.02-11.71-4-14.65    c-1.98-2.94-4.2-4.41-6.66-4.41c-1.64,0-3.25,0.51-4.82,1.54c-1.57,1.02-3.25,2.56-5.02,4.61c-1.64,2.05-3.59,3.35-5.84,3.89    c-2.25,0.55-4.34,0.48-6.25-0.21c-2.32-0.82-3.93-2.77-4.82-5.84c-0.89-3.07-0.45-7.55,1.33-13.42    c2.18-6.01,5.77-11.65,10.76-16.91c4.99-5.26,11.07-9.43,18.24-12.5c7.17-3.07,14.92-4.61,23.26-4.61    c9.29,0,16.8,3.35,22.54,10.04c5.74,6.7,9.29,17.21,10.66,31.56c0.95,7.24,1.71,15.68,2.25,25.31c0.54,9.63,1.03,19.98,1.43,31.05    c0.41,11.07,0.79,22.51,1.13,34.32c0.34,11.82,0.61,23.64,0.82,35.45c0.21,11.82,0.38,23.19,0.51,34.12l-9.63-1.43L906.34,235.05z    "
   id="path23"
   style="stroke:none" />
	</g>
</g>
<rect
   y="105.78"
   class="st2"
   width="288.7"
   height="288.7"
   id="rect29"
   style="stroke:#000000;opacity:1;fill:#cccccc;fill-opacity:0.5;stroke-opacity:0" />
<rect
   x="46.11"
   y="59.67"
   class="st2"
   width="288.7"
   height="288.7"
   id="rect31"
   style="stroke:#000000;opacity:1;fill:#cccccc;fill-opacity:0.5;stroke-opacity:0" />
<rect
   x="92.22"
   y="151.89"
   class="st1"
   width="288.7"
   height="288.7"
   id="rect33"
   style="stroke:none" />
</svg>
