<svg width="500" height="100" viewBox="0 0 375 75" xmlns="http://www.w3.org/2000/svg">

  <defs>
    <pattern id="stripes" patternUnits="userSpaceOnUse" width="24" height="24" patternTransform="rotate(45)">
      <line x1="0" y="0" x2="0" y2="24" stroke="#ffffff33" stroke-width="24" />
    </pattern>
  </defs>

  <rect id="pill" width="375" height="37.5" y="18.75" ry="18.75" fill="gray" />

  <clipPath id="clip">
    <use href="#pill" />
  </clipPath>

  <rect clip-path="url(#clip)" id="progress" width="47.5" height="37.5" y="18.75" fill="#FF9900">
    <animate attributeName="width" values="47.5; 360; 360" keyTimes="0; 0.8; 1" dur="10s" repeatCount="indefinite" />
  </rect>

  <use href="#progress" fill="url(#stripes)" />

  <path fill="#109aed" transform="translate(10)" style="stroke-linecap:round;stroke-linejoin:round"
    d="M41.778487.0061035a.72569567.72885577 0 0 0-.292517.02177793.72569567.72885577 0 0 0-.394134.28055314L36.21599 7.2462484a.72569567.72885577 0 0 0-.118196.2752152L31.66476 29.465872H5.1139699a.72569567.72885577 0 0 0-.5082902.208599L.21728949 34.00041a.72569567.72885577 0 0 0 .12903828 1.141427l2.16602733 1.333588-.3996589 24.070973a.72569567.72885577 0 0 0 .021684.188958l3.4134757 13.712505a.72569567.72885577 0 0 0 .703868.551924h2.763604a.72569567.72885577 0 0 0 .7255517-.728711V60.577357l7.0089244-8.432388h10.231499v8.168276a.72569567.72885577 0 0 0 .05272.272652l5.607776 13.95783a.72569567.72885577 0 0 0 .672832.456058h3.494895a.72569567.72885577 0 0 0 .721088-.810699l-1.523809-13.531022 7.815899-19.746316a.72569567.72885577 0 0 0 .05124-.269237V13.782449h4.150508a.72569567.72885577 0 0 0 .725548-.728713v-2.204068a.72569567.72885577 0 0 0-.441542-.670638l-7.101185-3.0348396L42.397534.86484312a.72569567.72885577 0 0 0-.619047-.85873962ZM15.407757 58.20568a.72569567.72885577 0 0 0-.479381.293365l-3.819725 5.305739a.72569567.72885577 0 0 0-.114158.61064l2.600976 10.039483a.72569567.72885577 0 0 0 .702169.545092h3.250422a.72569567.72885577 0 0 0 .719387-.824792l-2.031674-15.34522a.72569567.72885577 0 0 0-.828016-.624307Z">
    <animateTransform id="llamamove" attributeName="transform" type="translate" values="10; 322.5; 322.5"
      keyTimes="0; 0.8; 1" dur="10s" repeatCount="indefinite" />
  </path>
</svg>